<svg width="3986" height="1399" xmlns="http://www.w3.org/2000/svg" xmlns:xlink="http://www.w3.org/1999/xlink" xml:space="preserve" overflow="hidden"><g transform="translate(-21 -666)"><rect x="2280.5" y="794.5" width="372" height="349" stroke="#000000" stroke-width="4.58333" stroke-miterlimit="8" fill="#FFFFFF"/><path d="M2346.94 924.929 2409.1 924.929 2408.31 928.374 2342.99 1016.3 2365.96 1016.3C2368.4 1016.3 2370.37 1016.1 2371.88 1015.69 2373.39 1015.28 2374.71 1014.67 2375.86 1013.86 2377.01 1013.05 2378.18 1011.95 2379.38 1010.56 2380.58 1009.17 2381.78 1007.46 2383.01 1005.43 2384.23 1003.39 2385.62 1000.56 2387.2 996.922L2394.09 996.922 2388.57 1022.91 2324.9 1022.91 2325.62 1019.39 2390.79 931.532 2368.76 931.532C2366.08 931.532 2363.95 931.772 2362.37 932.25 2360.79 932.729 2359.32 933.578 2357.95 934.798 2356.59 936.019 2355.17 937.717 2353.68 939.895 2352.2 942.072 2350.48 945.17 2348.52 949.19L2341.63 949.19Z" fill-rule="evenodd"/><text fill="#000000" fill-opacity="0" font-family="Arial,Arial_MSFontService,sans-serif" font-size="97.9761" x="2324.9" y="1010.66">𝑍</text><path d="M2458.35 893.693 2459.76 897.716C2451.61 900.398 2445.58 905.631 2441.66 913.416 2437.74 921.2 2435.78 930.979 2435.78 942.752 2435.78 954.943 2437.74 964.991 2441.66 972.898 2445.58 980.804 2451.56 986.099 2459.61 988.781L2458.35 992.804C2448.15 990.122 2440.33 984.348 2434.89 975.484 2429.46 966.62 2426.74 955.883 2426.74 943.274 2426.74 930.7 2429.47 919.964 2434.92 911.065 2440.37 902.165 2448.18 896.375 2458.35 893.693Z" fill-rule="evenodd"/><text fill="#000000" fill-opacity="0" font-family="Arial,Arial_MSFontService,sans-serif" font-size="99.1108" x="2426.74" y="980.415">(</text><path d="M2497.29 901.895 2500.48 901.895C2500.41 903.811 2500.36 905.526 2500.32 907.042 2500.29 908.557 2500.26 910.028 2500.25 911.456 2500.23 912.884 2500.22 914.295 2500.22 915.688L2500.22 955.395C2500.22 956.475 2500.25 957.407 2500.32 958.191 2500.39 958.974 2500.51 959.636 2500.66 960.176 2500.82 960.716 2501.03 961.177 2501.29 961.56 2501.55 961.944 2501.86 962.274 2502.2 962.553 2502.62 962.971 2503.18 963.293 2503.88 963.52 2504.57 963.746 2505.46 963.938 2506.54 964.094 2507.62 964.251 2508.92 964.373 2510.43 964.46 2511.95 964.547 2513.77 964.608 2515.89 964.643L2515.89 969.188 2474.46 969.188 2474.46 964.643C2476.52 964.573 2478.26 964.495 2479.69 964.408 2481.11 964.321 2482.33 964.199 2483.34 964.042 2484.35 963.885 2485.16 963.711 2485.77 963.52 2486.38 963.328 2486.91 963.093 2487.37 962.814 2487.85 962.501 2488.27 962.161 2488.62 961.796 2488.97 961.43 2489.25 960.968 2489.46 960.411 2489.67 959.854 2489.83 959.174 2489.95 958.373 2490.07 957.572 2490.14 956.58 2490.14 955.395L2490.14 917.935C2490.14 916.577 2489.87 915.619 2489.35 915.061 2488.83 914.504 2488.08 914.225 2487.11 914.225 2486.03 914.225 2484.42 914.783 2482.3 915.897 2480.17 917.012 2477.42 918.666 2474.04 920.861 2473.59 920.06 2473.17 919.258 2472.79 918.457 2472.41 917.656 2472.01 916.838 2471.59 916.002 2475.91 913.633 2480.18 911.274 2484.41 908.922 2488.65 906.571 2492.94 904.229 2497.29 901.895Z" fill-rule="evenodd"/><text fill="#000000" fill-opacity="0" font-family="Arial,Arial_MSFontService,sans-serif" font-size="67.293" x="2471.59" y="960.777">1</text><path d="M2527.3 893.693C2537.47 896.375 2545.28 902.165 2550.73 911.065 2556.18 919.964 2558.91 930.7 2558.91 943.274 2558.91 955.883 2556.19 966.62 2550.76 975.484 2545.32 984.348 2537.5 990.122 2527.3 992.804L2526.04 988.781C2534.09 986.099 2540.07 980.804 2543.99 972.898 2547.91 964.991 2549.87 954.943 2549.87 942.752 2549.87 930.979 2547.92 921.2 2544.02 913.416 2540.12 905.631 2534.07 900.398 2525.89 897.716Z" fill-rule="evenodd"/><text fill="#000000" fill-opacity="0" font-family="Arial,Arial_MSFontService,sans-serif" font-size="99.1108" x="2525.89" y="980.415">)</text><rect x="2280.5" y="1182.5" width="372" height="349" stroke="#000000" stroke-width="4.58333" stroke-miterlimit="8" fill="#FFFFFF"/><path d="M2346.94 1312.77 2409.1 1312.77 2408.31 1316.22 2342.99 1404.15 2365.96 1404.15C2368.4 1404.15 2370.37 1403.94 2371.88 1403.54 2373.39 1403.13 2374.71 1402.52 2375.86 1401.71 2377.01 1400.89 2378.18 1399.79 2379.38 1398.4 2380.58 1397.02 2381.78 1395.31 2383.01 1393.27 2384.23 1391.24 2385.62 1388.4 2387.2 1384.77L2394.09 1384.77 2388.57 1410.75 2324.9 1410.75 2325.62 1407.23 2390.79 1319.38 2368.76 1319.38C2366.08 1319.38 2363.95 1319.62 2362.37 1320.1 2360.79 1320.57 2359.32 1321.42 2357.95 1322.64 2356.59 1323.86 2355.17 1325.56 2353.68 1327.74 2352.2 1329.92 2350.48 1333.02 2348.52 1337.04L2341.63 1337.04Z" fill-rule="evenodd"/><text fill="#000000" fill-opacity="0" font-family="Arial,Arial_MSFontService,sans-serif" font-size="97.9761" x="2324.9" y="1398.5">𝑍</text><path d="M2458.35 1281.54 2459.76 1285.56C2451.61 1288.24 2445.58 1293.48 2441.66 1301.26 2437.74 1309.05 2435.78 1318.82 2435.78 1330.6 2435.78 1342.79 2437.74 1352.84 2441.66 1360.74 2445.58 1368.65 2451.56 1373.94 2459.61 1376.63L2458.35 1380.65C2448.15 1377.97 2440.33 1372.19 2434.89 1363.33 2429.46 1354.47 2426.74 1343.73 2426.74 1331.12 2426.74 1318.55 2429.47 1307.81 2434.92 1298.91 2440.37 1290.01 2448.18 1284.22 2458.35 1281.54Z" fill-rule="evenodd"/><text fill="#000000" fill-opacity="0" font-family="Arial,Arial_MSFontService,sans-serif" font-size="99.1108" x="2426.74" y="1368.26">(</text><path d="M2493.22 1289.38C2496.84 1289.38 2499.93 1289.78 2502.49 1290.6 2505.05 1291.42 2507.13 1292.53 2508.74 1293.92 2510.34 1295.31 2511.5 1296.99 2512.21 1298.94 2512.92 1300.89 2513.28 1302.99 2513.28 1305.26 2513.28 1306.62 2513.19 1307.88 2512.99 1309.05 2512.8 1310.21 2512.47 1311.36 2512 1312.49 2511.53 1313.63 2510.91 1314.77 2510.15 1315.92 2509.38 1317.07 2508.42 1318.28 2507.27 1319.57 2506.4 1320.69 2505.27 1321.98 2503.88 1323.44 2502.48 1324.9 2500.96 1326.47 2499.3 1328.14 2497.65 1329.81 2495.92 1331.56 2494.11 1333.37 2492.3 1335.18 2490.54 1336.97 2488.83 1338.75 2487.12 1340.52 2485.56 1342.25 2484.13 1343.92 2482.7 1345.59 2481.53 1347.12 2480.63 1348.52L2499.96 1348.52C2501.59 1348.52 2502.9 1348.46 2503.88 1348.33 2504.85 1348.21 2505.66 1347.94 2506.31 1347.53 2506.95 1347.11 2507.5 1346.47 2507.95 1345.62 2508.4 1344.76 2508.93 1343.59 2509.52 1342.09L2514.38 1342.09C2514.2 1344.56 2514.04 1347.05 2513.88 1349.56 2513.72 1352.07 2513.56 1354.56 2513.39 1357.03L2469.13 1357.03 2469.13 1354.32C2469.97 1352.44 2470.94 1350.58 2472.06 1348.75 2473.17 1346.92 2474.43 1345.07 2475.82 1343.19 2477.21 1341.31 2478.8 1339.37 2480.57 1337.36 2482.35 1335.36 2484.32 1333.28 2486.48 1331.12 2489.75 1327.85 2492.42 1325.05 2494.47 1322.73 2496.53 1320.42 2498.15 1318.35 2499.33 1316.54 2500.52 1314.73 2501.33 1313.06 2501.76 1311.53 2502.2 1309.99 2502.41 1308.36 2502.41 1306.62 2502.41 1304.84 2502.16 1303.2 2501.66 1301.71 2501.15 1300.21 2500.43 1298.94 2499.49 1297.89 2498.55 1296.85 2497.35 1296.03 2495.91 1295.44 2494.46 1294.84 2492.8 1294.55 2490.92 1294.55 2487.68 1294.55 2484.96 1295.43 2482.77 1297.19 2480.57 1298.94 2478.87 1301.5 2477.65 1304.84L2470.8 1304.84 2470.8 1294.65C2475.26 1292.81 2479.36 1291.47 2483.11 1290.63 2486.85 1289.79 2490.22 1289.38 2493.22 1289.38Z" fill-rule="evenodd"/><text fill="#000000" fill-opacity="0" font-family="Arial,Arial_MSFontService,sans-serif" font-size="67.6587" x="2469.13" y="1348.58">2</text><path d="M2527.3 1281.54C2537.47 1284.22 2545.28 1290.01 2550.73 1298.91 2556.18 1307.81 2558.91 1318.55 2558.91 1331.12 2558.91 1343.73 2556.19 1354.47 2550.76 1363.33 2545.32 1372.19 2537.5 1377.97 2527.3 1380.65L2526.04 1376.63C2534.09 1373.94 2540.07 1368.65 2543.99 1360.74 2547.91 1352.84 2549.87 1342.79 2549.87 1330.6 2549.87 1318.82 2547.92 1309.05 2544.02 1301.26 2540.12 1293.48 2534.07 1288.24 2525.89 1285.56Z" fill-rule="evenodd"/><text fill="#000000" fill-opacity="0" font-family="Arial,Arial_MSFontService,sans-serif" font-size="99.1108" x="2525.89" y="1368.26">)</text><rect x="2280.5" y="1572.5" width="372" height="349" stroke="#000000" stroke-width="4.58333" stroke-miterlimit="8" fill="#FFFFFF"/><path d="M2346.94 1702.73 2409.1 1702.73 2408.31 1706.18 2342.99 1794.11 2365.96 1794.11C2368.4 1794.11 2370.37 1793.9 2371.88 1793.5 2373.39 1793.09 2374.71 1792.48 2375.86 1791.67 2377.01 1790.85 2378.18 1789.75 2379.38 1788.37 2380.58 1786.98 2381.78 1785.27 2383.01 1783.23 2384.23 1781.2 2385.62 1778.36 2387.2 1774.73L2394.09 1774.73 2388.57 1800.71 2324.9 1800.71 2325.62 1797.19 2390.79 1709.34 2368.76 1709.34C2366.08 1709.34 2363.95 1709.58 2362.37 1710.06 2360.79 1710.53 2359.32 1711.38 2357.95 1712.6 2356.59 1713.82 2355.17 1715.52 2353.68 1717.7 2352.2 1719.88 2350.48 1722.98 2348.52 1727L2341.63 1727Z" fill-rule="evenodd"/><text fill="#000000" fill-opacity="0" font-family="Arial,Arial_MSFontService,sans-serif" font-size="97.9761" x="2324.9" y="1788.46">𝑍</text><path d="M2458.35 1671.5 2459.76 1675.52C2451.61 1678.2 2445.58 1683.44 2441.66 1691.22 2437.74 1699.01 2435.78 1708.79 2435.78 1720.56 2435.78 1732.75 2437.74 1742.8 2441.66 1750.7 2445.58 1758.61 2451.56 1763.9 2459.61 1766.59L2458.35 1770.61C2448.15 1767.93 2440.33 1762.15 2434.89 1753.29 2429.46 1744.43 2426.74 1733.69 2426.74 1721.08 2426.74 1708.51 2429.47 1697.77 2434.92 1688.87 2440.37 1679.97 2448.18 1674.18 2458.35 1671.5Z" fill-rule="evenodd"/><text fill="#000000" fill-opacity="0" font-family="Arial,Arial_MSFontService,sans-serif" font-size="99.1108" x="2426.74" y="1758.22">(</text><path d="M2493.11 1679.34C2495.9 1679.34 2498.5 1679.63 2500.92 1680.22 2503.35 1680.82 2505.44 1681.71 2507.22 1682.91 2509 1684.12 2510.38 1685.61 2511.37 1687.41 2512.37 1689.2 2512.86 1691.28 2512.86 1693.65 2512.86 1695.88 2512.55 1697.85 2511.92 1699.55 2511.3 1701.26 2510.33 1702.81 2509.02 1704.2 2507.72 1705.6 2506.11 1706.86 2504.22 1707.99 2502.32 1709.12 2500.13 1710.21 2497.66 1711.26L2497.66 1711.89C2499.99 1712.3 2502.17 1712.97 2504.19 1713.9 2506.21 1714.82 2507.98 1715.99 2509.49 1717.4 2511.01 1718.81 2512.2 1720.44 2513.07 1722.28 2513.94 1724.13 2514.38 1726.17 2514.38 1728.39 2514.38 1731.18 2513.86 1733.77 2512.81 1736.15 2511.77 1738.54 2510.2 1740.6 2508.11 1742.34 2506.02 1744.09 2503.44 1745.44 2500.38 1746.42 2497.31 1747.39 2493.72 1747.88 2489.61 1747.88 2486.37 1747.88 2483.08 1747.56 2479.74 1746.92 2476.4 1746.27 2473.23 1745.43 2470.23 1744.38L2470.23 1733.1 2476.97 1733.1C2477.53 1734.84 2478.19 1736.33 2478.96 1737.56 2479.72 1738.8 2480.62 1739.81 2481.65 1740.59 2482.67 1741.38 2483.86 1741.94 2485.2 1742.29 2486.54 1742.64 2488.06 1742.81 2489.77 1742.81 2494.26 1742.81 2497.67 1741.74 2499.98 1739.6 2502.3 1737.46 2503.46 1734.21 2503.46 1729.86 2503.46 1725.23 2501.93 1721.72 2498.89 1719.33 2495.84 1716.94 2491.32 1715.75 2485.33 1715.75L2480.73 1715.75 2480.73 1710.74C2484.39 1710.56 2487.55 1710.05 2490.21 1709.19 2492.88 1708.34 2495.1 1707.24 2496.88 1705.88 2498.65 1704.52 2499.98 1702.93 2500.85 1701.12 2501.72 1699.31 2502.15 1697.38 2502.15 1695.32 2502.15 1691.98 2501.16 1689.34 2499.17 1687.41 2497.19 1685.47 2494.32 1684.51 2490.55 1684.51 2487.38 1684.51 2484.73 1685.38 2482.59 1687.12 2480.44 1688.86 2478.8 1691.46 2477.65 1694.91L2471.01 1694.91 2471.01 1684.61C2475.12 1682.87 2479 1681.56 2482.64 1680.67 2486.28 1679.78 2489.77 1679.34 2493.11 1679.34Z" fill-rule="evenodd"/><text fill="#000000" fill-opacity="0" font-family="Arial,Arial_MSFontService,sans-serif" font-size="68.5469" x="2470.23" y="1739.31">3</text><path d="M2527.3 1671.5C2537.47 1674.18 2545.28 1679.97 2550.73 1688.87 2556.18 1697.77 2558.91 1708.51 2558.91 1721.08 2558.91 1733.69 2556.19 1744.43 2550.76 1753.29 2545.32 1762.15 2537.5 1767.93 2527.3 1770.61L2526.04 1766.59C2534.09 1763.9 2540.07 1758.61 2543.99 1750.7 2547.91 1742.8 2549.87 1732.75 2549.87 1720.56 2549.87 1708.79 2547.92 1699.01 2544.02 1691.22 2540.12 1683.44 2534.07 1678.2 2525.89 1675.52Z" fill-rule="evenodd"/><text fill="#000000" fill-opacity="0" font-family="Arial,Arial_MSFontService,sans-serif" font-size="99.1108" x="2525.89" y="1758.22">)</text><rect x="3032.5" y="986.5" width="972" height="350" stroke="#64310F" stroke-width="4.58333" stroke-miterlimit="8" fill="#ED7D31"/><path d="M3145.77 1114.31C3148.23 1114.31 3150.51 1114.46 3152.6 1114.75 3154.69 1115.05 3157.02 1115.59 3159.59 1116.38L3157.16 1127.36 3153.27 1127.36C3153.05 1124.04 3152.33 1121.64 3151.1 1120.17 3149.87 1118.69 3147.89 1117.96 3145.16 1117.96 3141.43 1117.96 3137.97 1119.82 3134.77 1123.55 3131.57 1127.28 3129.03 1132.2 3127.17 1138.32 3125.3 1144.44 3124.37 1150.12 3124.37 1155.36 3124.37 1159.47 3125.1 1162.5 3126.56 1164.44 3128.02 1166.39 3130.26 1167.36 3133.29 1167.36 3135.32 1167.36 3137.08 1167.06 3138.6 1166.45 3140.11 1165.84 3141.53 1164.81 3142.85 1163.37 3144.18 1161.92 3145.49 1159.9 3146.78 1157.31L3150.68 1157.31 3148.2 1168.82C3143.15 1170.22 3137.85 1170.93 3132.32 1170.93 3127.24 1170.93 3123.37 1169.47 3120.73 1166.55 3118.08 1163.63 3116.75 1159.36 3116.75 1153.74 3116.75 1149.77 3117.46 1145.19 3118.88 1140 3120.3 1134.82 3122.31 1130.26 3124.9 1126.35 3127.49 1122.43 3130.56 1119.44 3134.1 1117.39 3137.64 1115.34 3141.53 1114.31 3145.77 1114.31Z" fill="#FFFFFF" fill-rule="evenodd"/><text fill="#000000" fill-opacity="0" font-family="Arial,Arial_MSFontService,sans-serif" font-size="56.6167" x="3116.75" y="1163.85">𝐶</text><path d="M3249.86 1108.16C3257.75 1110.24 3263.81 1114.74 3268.03 1121.64 3272.26 1128.54 3274.38 1136.87 3274.38 1146.62 3274.38 1156.4 3272.27 1164.73 3268.06 1171.61 3263.84 1178.48 3257.77 1182.96 3249.86 1185.04L3248.89 1181.92C3255.13 1179.84 3259.77 1175.74 3262.81 1169.6 3265.85 1163.47 3267.37 1155.67 3267.37 1146.22 3267.37 1137.09 3265.85 1129.5 3262.83 1123.46 3259.8 1117.42 3255.11 1113.36 3248.76 1111.28ZM3195.99 1108.16 3197.08 1111.28C3190.76 1113.36 3186.08 1117.42 3183.04 1123.46 3180 1129.5 3178.48 1137.09 3178.48 1146.22 3178.48 1155.67 3180 1163.47 3183.04 1169.6 3186.08 1175.74 3190.72 1179.84 3196.96 1181.92L3195.99 1185.04C3188.07 1182.96 3182.01 1178.48 3177.79 1171.61 3173.58 1164.73 3171.47 1156.4 3171.47 1146.62 3171.47 1136.87 3173.58 1128.54 3177.81 1121.64 3182.04 1114.74 3188.1 1110.24 3195.99 1108.16Z" fill="#FFFFFF" fill-rule="evenodd"/><path d="M3211.58 1144.06C3210.31 1149.92 3209.68 1154.85 3209.68 1158.85 3209.68 1161.87 3210.14 1164.1 3211.06 1165.52 3211.97 1166.93 3213.46 1167.64 3215.51 1167.64 3218.54 1167.64 3221.41 1165.61 3224.13 1161.54 3226.84 1157.48 3229.14 1151.65 3231.04 1144.06ZM3228.2 1116.74C3225.04 1116.74 3222.11 1118.74 3219.43 1122.74 3216.74 1126.74 3214.45 1132.47 3212.56 1139.92L3231.97 1139.92C3233.24 1134.22 3233.87 1129.32 3233.87 1125.21 3233.87 1122.37 3233.41 1120.25 3232.5 1118.85 3231.58 1117.44 3230.14 1116.74 3228.2 1116.74ZM3228.69 1113.46C3236.52 1113.46 3240.44 1118.43 3240.44 1128.37 3240.44 1131.18 3240.12 1134.54 3239.49 1138.44 3238.85 1142.35 3237.84 1146.33 3236.47 1150.38 3235.09 1154.43 3233.35 1158.02 3231.24 1161.14 3229.13 1164.26 3226.7 1166.67 3223.94 1168.37 3221.19 1170.07 3218.22 1170.93 3215.03 1170.93 3211 1170.93 3208 1169.7 3206.03 1167.24 3204.06 1164.78 3203.07 1161.09 3203.07 1156.17 3203.07 1153.5 3203.37 1150.2 3203.96 1146.29 3204.56 1142.37 3205.54 1138.36 3206.9 1134.27 3208.27 1130.18 3210.02 1126.54 3212.17 1123.37 3214.32 1120.19 3216.79 1117.75 3219.59 1116.03 3222.38 1114.32 3225.42 1113.46 3228.69 1113.46Z" fill="#FFFFFF" fill-rule="evenodd"/><text fill="#000000" fill-opacity="0" font-family="Arial,Arial_MSFontService,sans-serif" font-size="57.4678" x="3203.07" y="1163.74">𝜃</text><path d="M3310.42 1152.28 3360.35 1152.28 3360.35 1157.67 3310.42 1157.67ZM3310.42 1135.46 3360.35 1135.46 3360.35 1140.85 3310.42 1140.85Z" fill="#FFFFFF" fill-rule="evenodd"/><text fill="#000000" fill-opacity="0" font-family="Arial,Arial_MSFontService,sans-serif" font-size="22.209" x="3310.42" y="1154.9">=</text><path d="M3391.89 1067.36 3489.76 1067.36 3489.76 1091.35 3484.41 1091.35C3483.79 1085.6 3482.53 1081.05 3480.64 1077.7 3478.75 1074.34 3475.89 1072.67 3472.05 1072.67L3408.1 1072.67 3456.45 1138.32 3456.45 1143.23 3404.25 1214.07 3474.56 1214.07C3477.67 1214.07 3480.05 1212.98 3481.69 1210.79 3483.34 1208.6 3484.76 1203.71 3485.95 1196.12L3491.95 1196.12 3489.88 1225.82 3390.22 1225.82 3390.22 1221.81 3447 1144.85 3391.89 1071.21Z" fill="#FFFFFF" fill-rule="evenodd"/><text fill="#000000" fill-opacity="0" font-family="Arial,Arial_MSFontService,sans-serif" font-size="158.462" x="3390.22" y="1206.01">෍</text><path d="M3586.93 1134.13C3584.12 1134.13 3581.67 1135.3 3579.58 1137.65 3577.48 1140 3575.83 1143.37 3574.63 1147.74 3573.43 1152.12 3572.83 1155.89 3572.83 1159.05 3572.83 1162.02 3573.44 1164.22 3574.67 1165.64 3575.9 1167.06 3577.76 1167.76 3580.25 1167.76 3582.89 1167.76 3585.24 1166.58 3587.3 1164.2 3589.35 1161.82 3590.97 1158.49 3592.16 1154.21 3593.35 1149.93 3593.94 1146.16 3593.94 1142.92 3593.94 1140 3593.38 1137.81 3592.24 1136.34 3591.11 1134.86 3589.34 1134.13 3586.93 1134.13ZM3587.74 1130.88C3592.07 1130.88 3595.36 1132.07 3597.63 1134.43 3599.9 1136.79 3601.04 1140.18 3601.04 1144.58 3601.04 1147.72 3600.49 1151.07 3599.39 1154.63 3598.3 1158.2 3596.8 1161.2 3594.9 1163.63 3592.99 1166.06 3590.71 1167.89 3588.07 1169.12 3585.42 1170.35 3582.38 1170.97 3578.95 1170.97 3574.76 1170.97 3571.51 1169.79 3569.2 1167.44 3566.89 1165.09 3565.74 1161.71 3565.74 1157.31 3565.74 1155.15 3566.06 1152.65 3566.71 1149.81 3567.55 1145.97 3568.95 1142.62 3570.92 1139.76 3572.9 1136.9 3575.33 1134.7 3578.22 1133.17 3581.11 1131.65 3584.28 1130.88 3587.74 1130.88ZM3643.66 1130.68C3645.6 1130.68 3647.01 1131.19 3647.87 1132.2 3648.74 1133.21 3649.17 1134.57 3649.17 1136.27 3649.17 1137.57 3648.94 1139.06 3648.48 1140.73 3648.02 1142.41 3647.37 1144.18 3646.54 1146.04 3645.7 1147.91 3644.7 1149.82 3643.54 1151.78 3642.37 1153.74 3641.09 1155.64 3639.69 1157.49 3638.28 1159.34 3636.78 1161.08 3635.19 1162.72 3633.59 1164.35 3631.94 1165.78 3630.22 1166.99 3628.51 1168.21 3626.76 1169.18 3624.99 1169.89 3623.23 1170.61 3621.46 1170.97 3619.71 1170.97 3618.92 1170.97 3618.27 1170.77 3617.74 1170.38 3617.21 1169.99 3616.79 1169.43 3616.46 1168.72 3616.14 1168 3615.91 1167.16 3615.77 1166.18 3615.64 1165.21 3615.57 1164.14 3615.57 1162.98 3615.57 1161.44 3615.67 1159.79 3615.86 1158.04 3616.05 1156.28 3616.29 1154.51 3616.59 1152.73L3618.29 1141.5C3618.4 1140.85 3618.48 1140.24 3618.55 1139.66 3618.62 1139.08 3618.65 1138.65 3618.65 1138.38 3618.65 1137.54 3618.52 1136.86 3618.25 1136.32 3617.98 1135.77 3617.52 1135.5 3616.87 1135.5 3616.36 1135.5 3615.8 1135.66 3615.21 1135.97 3614.61 1136.28 3614.01 1136.68 3613.4 1137.17 3612.8 1137.65 3612.21 1138.17 3611.64 1138.73 3611.07 1139.28 3610.55 1139.8 3610.06 1140.29L3608.12 1138.02C3608.95 1137.15 3609.84 1136.3 3610.79 1135.44 3611.74 1134.59 3612.74 1133.82 3613.79 1133.13 3614.84 1132.44 3615.95 1131.89 3617.11 1131.47 3618.27 1131.05 3619.46 1130.84 3620.68 1130.84 3621.71 1130.84 3622.54 1131.01 3623.19 1131.35 3623.84 1131.69 3624.35 1132.13 3624.71 1132.69 3625.08 1133.24 3625.33 1133.85 3625.46 1134.51 3625.6 1135.17 3625.66 1135.83 3625.66 1136.48 3625.66 1136.86 3625.65 1137.22 3625.62 1137.57 3625.6 1137.92 3625.56 1138.25 3625.5 1138.54L3623.23 1153.22C3622.99 1154.76 3622.79 1156.26 3622.62 1157.73 3622.46 1159.21 3622.38 1160.51 3622.38 1161.64 3622.38 1162.78 3622.45 1163.7 3622.58 1164.4 3622.72 1165.1 3622.98 1165.45 3623.35 1165.45 3624.25 1165.45 3625.37 1165.1 3626.72 1164.38 3628.07 1163.66 3629.49 1162.68 3630.97 1161.42 3632.46 1160.17 3633.94 1158.68 3635.43 1156.96 3636.92 1155.25 3638.25 1153.39 3639.44 1151.39 3640.63 1149.39 3641.6 1147.28 3642.34 1145.07 3643.08 1142.85 3643.46 1140.62 3643.46 1138.38 3643.46 1137.41 3643.25 1136.66 3642.83 1136.13 3642.41 1135.61 3641.75 1135.34 3640.86 1135.34 3639.73 1135.34 3638.68 1135.78 3637.72 1136.66 3636.76 1137.54 3635.77 1138.69 3634.74 1140.12L3632.43 1138.06C3633.08 1137.09 3633.84 1136.15 3634.72 1135.26 3635.6 1134.37 3636.53 1133.59 3637.52 1132.91 3638.5 1132.24 3639.52 1131.7 3640.58 1131.29 3641.63 1130.88 3642.66 1130.68 3643.66 1130.68ZM3546.77 1114.31C3549.23 1114.31 3551.5 1114.46 3553.6 1114.75 3555.69 1115.05 3558.02 1115.59 3560.59 1116.38L3558.16 1127.36 3554.26 1127.36C3554.05 1124.04 3553.33 1121.64 3552.1 1120.17 3550.87 1118.69 3548.89 1117.96 3546.16 1117.96 3542.43 1117.96 3538.97 1119.82 3535.76 1123.55 3532.56 1127.28 3530.03 1132.2 3528.17 1138.32 3526.3 1144.44 3525.37 1150.12 3525.37 1155.36 3525.37 1159.47 3526.1 1162.5 3527.56 1164.44 3529.02 1166.39 3531.26 1167.36 3534.28 1167.36 3536.31 1167.36 3538.08 1167.06 3539.59 1166.45 3541.11 1165.84 3542.53 1164.81 3543.85 1163.37 3545.17 1161.92 3546.48 1159.9 3547.78 1157.31L3551.67 1157.31 3549.2 1168.82C3544.15 1170.22 3538.85 1170.93 3533.31 1170.93 3528.23 1170.93 3524.37 1169.47 3521.72 1166.55 3519.07 1163.63 3517.75 1159.36 3517.75 1153.74 3517.75 1149.77 3518.46 1145.19 3519.88 1140 3521.3 1134.82 3523.3 1130.26 3525.9 1126.35 3528.49 1122.43 3531.56 1119.44 3535.1 1117.39 3538.63 1115.34 3542.53 1114.31 3546.77 1114.31Z" fill="#FFFFFF" fill-rule="evenodd"/><text fill="#000000" fill-opacity="0" font-family="Arial,Arial_MSFontService,sans-serif" font-size="56.6572" x="3517.75" y="1163.88">𝐶𝑜𝑣</text><path d="M3684.57 1111.72 3685.67 1114.84C3679.34 1116.92 3674.66 1120.98 3671.62 1127.01 3668.58 1133.05 3667.06 1140.64 3667.06 1149.77 3667.06 1159.23 3668.58 1167.02 3671.62 1173.15 3674.66 1179.29 3679.3 1183.39 3685.54 1185.47L3684.57 1188.6C3676.66 1186.52 3670.59 1182.04 3666.37 1175.16 3662.16 1168.28 3660.05 1159.96 3660.05 1150.18 3660.05 1140.42 3662.17 1132.09 3666.4 1125.19 3670.62 1118.29 3676.68 1113.8 3684.57 1111.72Z" fill="#FFFFFF" fill-rule="evenodd"/><text fill="#000000" fill-opacity="0" font-family="Arial,Arial_MSFontService,sans-serif" font-size="76.8804" x="3660.05" y="1178.99">(</text><path d="M3699.98 1114.96 3735.08 1114.96 3734.63 1116.9 3697.75 1166.55 3710.72 1166.55C3712.1 1166.55 3713.21 1166.43 3714.06 1166.2 3714.91 1165.97 3715.66 1165.63 3716.31 1165.17 3716.96 1164.71 3717.62 1164.09 3718.3 1163.31 3718.97 1162.52 3719.66 1161.56 3720.34 1160.41 3721.03 1159.26 3721.82 1157.66 3722.72 1155.61L3726.61 1155.61 3723.49 1170.28 3687.54 1170.28 3687.94 1168.29 3724.74 1118.69 3712.3 1118.69C3710.79 1118.69 3709.58 1118.82 3708.69 1119.09 3707.8 1119.36 3706.97 1119.84 3706.2 1120.53 3705.43 1121.22 3704.63 1122.18 3703.79 1123.41 3702.95 1124.64 3701.98 1126.39 3700.87 1128.66L3696.98 1128.66Z" fill="#FFFFFF" fill-rule="evenodd"/><text fill="#000000" fill-opacity="0" font-family="Arial,Arial_MSFontService,sans-serif" font-size="55.3198" x="3687.54" y="1163.36">𝑍</text><path d="M3753.56 1109.96 3755.02 1109.96 3750.62 1129.8C3750.34 1130.97 3750.14 1131.9 3750.04 1132.6 3749.93 1133.29 3749.87 1133.92 3749.87 1134.47 3749.87 1135.23 3750.03 1135.77 3750.33 1136.11 3750.64 1136.45 3751.1 1136.62 3751.72 1136.62 3752.08 1136.62 3752.43 1136.55 3752.79 1136.41 3753.15 1136.27 3753.53 1136.05 3753.94 1135.75 3754.34 1135.46 3754.79 1135.07 3755.28 1134.61 3755.76 1134.14 3756.3 1133.58 3756.9 1132.92L3758.93 1134.89C3757.89 1135.94 3756.96 1136.83 3756.11 1137.56 3755.27 1138.28 3754.47 1138.87 3753.71 1139.33 3752.96 1139.79 3752.22 1140.11 3751.49 1140.31 3750.77 1140.51 3750 1140.61 3749.19 1140.61 3748.43 1140.61 3747.75 1140.47 3747.15 1140.19 3746.54 1139.91 3746.02 1139.53 3745.58 1139.05 3745.15 1138.56 3744.81 1137.98 3744.57 1137.3 3744.33 1136.63 3744.21 1135.88 3744.21 1135.07 3744.21 1134.41 3744.29 1133.6 3744.45 1132.63 3744.61 1131.65 3744.81 1130.6 3745.06 1129.45 3745.31 1128.31 3745.58 1127.12 3745.88 1125.87 3746.18 1124.61 3746.47 1123.37 3746.76 1122.14 3747.05 1120.91 3747.3 1119.72 3747.53 1118.58 3747.76 1117.44 3747.93 1116.4 3748.02 1115.47 3748.06 1115.31 3748.08 1115.16 3748.08 1115.01 3748.08 1114.86 3748.08 1114.73 3748.08 1114.61 3748.04 1113.83 3747.77 1113.27 3747.27 1112.91 3746.76 1112.55 3745.86 1112.35 3744.57 1112.31L3744.93 1110.29ZM3751.84 1097.96 3757.79 1097.96 3756.33 1104.36 3750.44 1104.36Z" fill="#FFFFFF" fill-rule="evenodd"/><text fill="#000000" fill-opacity="0" font-family="Arial,Arial_MSFontService,sans-serif" font-size="42.6523" x="3744.21" y="1135.28">𝑖</text><path d="M3771.37 1160.87 3778.47 1160.87C3778.84 1162.77 3779.03 1164.63 3779.03 1166.47 3779.03 1168.36 3778.71 1170.09 3778.06 1171.66 3777.41 1173.22 3776.38 1174.78 3774.96 1176.34 3773.54 1177.89 3771.59 1179.6 3769.1 1181.46L3766.92 1178.99C3768.29 1177.69 3769.29 1176.53 3769.91 1175.48 3770.54 1174.44 3770.98 1173.26 3771.25 1171.94 3771.52 1170.61 3771.66 1168.95 3771.66 1166.95 3771.66 1164.9 3771.56 1162.87 3771.37 1160.87Z" fill="#FFFFFF" fill-rule="evenodd"/><text fill="#000000" fill-opacity="0" font-family="Arial,Arial_MSFontService,sans-serif" font-size="20.5879" x="3766.92" y="1178.89">,</text><path d="M3809.73 1114.96 3844.82 1114.96 3844.38 1116.9 3807.5 1166.55 3820.47 1166.55C3821.85 1166.55 3822.96 1166.43 3823.81 1166.2 3824.66 1165.97 3825.41 1165.63 3826.06 1165.17 3826.71 1164.71 3827.37 1164.09 3828.05 1163.31 3828.72 1162.52 3829.4 1161.56 3830.09 1160.41 3830.78 1159.26 3831.57 1157.66 3832.46 1155.61L3836.35 1155.61 3833.23 1170.28 3797.29 1170.28 3797.69 1168.29 3834.49 1118.69 3822.05 1118.69C3820.53 1118.69 3819.33 1118.82 3818.44 1119.09 3817.55 1119.36 3816.72 1119.84 3815.95 1120.53 3815.18 1121.22 3814.37 1122.18 3813.54 1123.41 3812.7 1124.64 3811.73 1126.39 3810.62 1128.66L3806.73 1128.66Z" fill="#FFFFFF" fill-rule="evenodd"/><text fill="#000000" fill-opacity="0" font-family="Arial,Arial_MSFontService,sans-serif" font-size="55.3198" x="3797.29" y="1163.36">𝑍</text><path d="M3867.86 1109.96 3869.92 1109.96 3863.72 1139.15C3863.22 1141.41 3862.58 1143.35 3861.8 1144.97 3861.01 1146.59 3860.06 1147.92 3858.92 1148.95 3857.79 1149.98 3856.47 1150.74 3854.96 1151.23 3853.45 1151.71 3851.73 1151.96 3849.78 1151.96 3849.26 1151.96 3848.77 1151.93 3848.29 1151.88 3847.81 1151.83 3847.39 1151.76 3847.01 1151.66L3847.76 1148.53C3847.99 1148.63 3848.31 1148.7 3848.71 1148.73 3849.11 1148.76 3849.56 1148.77 3850.08 1148.77 3851.05 1148.77 3851.92 1148.64 3852.68 1148.38 3853.45 1148.12 3854.13 1147.66 3854.74 1146.98 3855.35 1146.31 3855.89 1145.38 3856.38 1144.2 3856.86 1143.02 3857.32 1141.5 3857.73 1139.66 3858.43 1136.44 3859.09 1133.42 3859.73 1130.6 3860.36 1127.78 3860.89 1125.42 3861.29 1123.51 3861.7 1121.61 3862.02 1120.09 3862.26 1118.96 3862.5 1117.82 3862.67 1116.95 3862.78 1116.33 3862.89 1115.72 3862.96 1115.28 3862.98 1115.02 3863 1114.77 3863.01 1114.56 3863.01 1114.4 3863.01 1113.7 3862.74 1113.19 3862.22 1112.86 3861.69 1112.54 3860.76 1112.35 3859.43 1112.31L3859.88 1110.29ZM3866.76 1097.96 3872.74 1097.96 3871.29 1104.36 3865.3 1104.36Z" fill="#FFFFFF" fill-rule="evenodd"/><text fill="#000000" fill-opacity="0" font-family="Arial,Arial_MSFontService,sans-serif" font-size="54.0005" x="3847.01" y="1145.21">𝑗</text><path d="M3882.45 1111.72C3890.34 1113.8 3896.4 1118.29 3900.63 1125.19 3904.85 1132.09 3906.97 1140.42 3906.97 1150.18 3906.97 1159.96 3904.86 1168.28 3900.65 1175.16 3896.43 1182.04 3890.37 1186.52 3882.45 1188.6L3881.48 1185.47C3887.72 1183.39 3892.36 1179.29 3895.4 1173.15 3898.44 1167.02 3899.96 1159.23 3899.96 1149.77 3899.96 1140.64 3898.45 1133.05 3895.42 1127.01 3892.39 1120.98 3887.71 1116.92 3881.36 1114.84Z" fill="#FFFFFF" fill-rule="evenodd"/><text fill="#000000" fill-opacity="0" font-family="Arial,Arial_MSFontService,sans-serif" font-size="76.8804" x="3881.36" y="1178.99">)</text><path d="M3409.68 1245.33 3411.14 1245.33 3406.73 1265.17C3406.45 1266.34 3406.26 1267.27 3406.15 1267.97 3406.04 1268.66 3405.98 1269.29 3405.98 1269.84 3405.98 1270.6 3406.14 1271.14 3406.45 1271.48 3406.75 1271.82 3407.22 1271.99 3407.83 1271.99 3408.19 1271.99 3408.55 1271.92 3408.9 1271.78 3409.26 1271.64 3409.64 1271.42 3410.05 1271.12 3410.46 1270.83 3410.9 1270.44 3411.39 1269.98 3411.88 1269.51 3412.42 1268.95 3413.01 1268.29L3415.04 1270.26C3414.01 1271.31 3413.07 1272.2 3412.22 1272.92 3411.38 1273.65 3410.58 1274.24 3409.83 1274.7 3409.07 1275.15 3408.33 1275.48 3407.61 1275.68 3406.88 1275.88 3406.11 1275.98 3405.3 1275.98 3404.54 1275.98 3403.86 1275.84 3403.26 1275.56 3402.65 1275.28 3402.13 1274.9 3401.69 1274.41 3401.26 1273.93 3400.92 1273.35 3400.68 1272.67 3400.44 1272 3400.32 1271.25 3400.32 1270.44 3400.32 1269.78 3400.4 1268.97 3400.56 1268 3400.72 1267.02 3400.93 1265.97 3401.17 1264.82 3401.42 1263.68 3401.69 1262.49 3401.99 1261.23 3402.29 1259.98 3402.58 1258.74 3402.87 1257.51 3403.16 1256.28 3403.42 1255.09 3403.65 1253.95 3403.87 1252.81 3404.04 1251.77 3404.14 1250.84 3404.18 1250.68 3404.2 1250.53 3404.2 1250.38 3404.2 1250.23 3404.2 1250.09 3404.2 1249.98 3404.16 1249.2 3403.88 1248.64 3403.38 1248.28 3402.87 1247.92 3401.97 1247.72 3400.68 1247.68L3401.04 1245.66ZM3407.95 1233.33 3413.91 1233.33 3412.45 1239.73 3406.55 1239.73Z" fill="#FFFFFF" fill-rule="evenodd"/><text fill="#000000" fill-opacity="0" font-family="Arial,Arial_MSFontService,sans-serif" font-size="42.6523" x="3400.32" y="1270.65">𝑖</text><path d="M3446.43 1241.28 3450.54 1241.28 3447.09 1249.26 3457.99 1249.26 3457.99 1253.82 3445.09 1253.82 3441.46 1262.22 3457.99 1262.22 3457.99 1266.77 3439.46 1266.77 3436.04 1274.7 3431.9 1274.7 3435.32 1266.77 3423.67 1266.77 3423.67 1262.22 3437.32 1262.22 3440.95 1253.82 3423.67 1253.82 3423.67 1249.26 3442.95 1249.26Z" fill="#FFFFFF" fill-rule="evenodd"/><text fill="#000000" fill-opacity="0" font-family="Arial,Arial_MSFontService,sans-serif" font-size="33.4189" x="3423.67" y="1270.52">≠</text><path d="M3483.78 1245.33 3485.83 1245.33 3479.64 1274.52C3479.14 1276.78 3478.5 1278.72 3477.72 1280.34 3476.93 1281.96 3475.97 1283.29 3474.84 1284.32 3473.71 1285.35 3472.39 1286.11 3470.88 1286.6 3469.37 1287.08 3467.64 1287.33 3465.7 1287.33 3465.18 1287.33 3464.68 1287.3 3464.21 1287.25 3463.73 1287.2 3463.3 1287.13 3462.93 1287.03L3463.67 1283.9C3463.91 1284 3464.23 1284.06 3464.62 1284.09 3465.02 1284.12 3465.48 1284.14 3466 1284.14 3466.97 1284.14 3467.84 1284.01 3468.6 1283.75 3469.37 1283.49 3470.05 1283.03 3470.66 1282.35 3471.26 1281.68 3471.81 1280.75 3472.29 1279.57 3472.78 1278.39 3473.23 1276.87 3473.65 1275.02 3474.34 1271.81 3475.01 1268.79 3475.65 1265.97 3476.28 1263.15 3476.8 1260.79 3477.21 1258.88 3477.62 1256.97 3477.94 1255.46 3478.18 1254.32 3478.42 1253.19 3478.59 1252.32 3478.7 1251.7 3478.81 1251.09 3478.87 1250.65 3478.89 1250.39 3478.91 1250.13 3478.92 1249.93 3478.92 1249.77 3478.92 1249.07 3478.66 1248.56 3478.13 1248.23 3477.61 1247.91 3476.68 1247.72 3475.35 1247.68L3475.79 1245.66ZM3482.67 1233.33 3488.66 1233.33 3487.2 1239.73 3481.22 1239.73Z" fill="#FFFFFF" fill-rule="evenodd"/><text fill="#000000" fill-opacity="0" font-family="Arial,Arial_MSFontService,sans-serif" font-size="54.0005" x="3462.93" y="1280.58">𝑗</text><path d="M2654.05 966.434 3013.32 1148.5 3010.21 1154.63 2650.95 972.566ZM3013.89 1137.23 3032.21 1161.93 3001.46 1161.76Z" fill="#ED7D31"/><path d="M1.57303-3.05647 360.905 181.876 357.759 187.989-1.57303 3.05647ZM361.549 170.609 379.708 195.419 348.964 195.061Z" fill="#ED7D31" transform="matrix(1 0 0 -1 2652.5 1356.92)"/><path d="M2.88392-1.87067 370.122 564.284 364.354 568.025-2.88392 1.87067ZM376.279 554.826 379.708 585.38 353.207 569.791Z" fill="#ED7D31" transform="matrix(1 0 0 -1 2652.5 1746.88)"/><rect x="3032.5" y="1384.5" width="972" height="349" stroke="#172C51" stroke-width="4.58333" stroke-miterlimit="8" fill="#4472C4"/><path d="M3207.76 1517.82 3222.51 1517.82 3222.12 1519.57C3221.08 1519.69 3220.26 1520 3219.68 1520.49 3219.1 1520.99 3218.69 1521.69 3218.45 1522.58 3218.21 1523.47 3218.09 1524.66 3218.09 1526.16 3218.09 1526.52 3218.13 1527.59 3218.2 1529.37L3219.2 1555.46 3219.2 1558.31 3219.56 1558.31 3234.99 1530.47C3235.89 1528.84 3236.57 1527.43 3237.02 1526.25 3237.47 1525.07 3237.7 1524.04 3237.7 1523.13 3237.7 1521.14 3236.51 1519.95 3234.13 1519.57L3234.53 1517.82 3249.11 1517.82 3248.71 1519.57C3248.07 1519.66 3247.46 1519.91 3246.88 1520.3 3246.3 1520.69 3245.64 1521.34 3244.92 1522.26 3244.19 1523.17 3243.07 1524.94 3241.55 1527.55L3218.74 1567.05 3214 1567.05 3211.61 1527.3C3211.51 1525.76 3211.34 1524.43 3211.09 1523.33 3210.84 1522.22 3210.45 1521.36 3209.91 1520.74 3209.38 1520.13 3208.53 1519.73 3207.37 1519.57Z" fill="#FFFFFF" fill-rule="evenodd"/><text fill="#000000" fill-opacity="0" font-family="Arial,Arial_MSFontService,sans-serif" font-size="49.2251" x="3207.37" y="1560.89">𝑉</text><path d="M3328.3 1511.81C3335.24 1513.64 3340.57 1517.59 3344.29 1523.66 3348.01 1529.73 3349.87 1537.06 3349.87 1545.63 3349.87 1554.24 3348.02 1561.56 3344.31 1567.61 3340.6 1573.66 3335.27 1577.59 3328.3 1579.42L3327.45 1576.68C3332.94 1574.85 3337.02 1571.24 3339.69 1565.84 3342.37 1560.45 3343.7 1553.59 3343.7 1545.28 3343.7 1537.25 3342.37 1530.57 3339.71 1525.26 3337.05 1519.95 3332.93 1516.38 3327.34 1514.55ZM3280.13 1511.81 3281.09 1514.55C3275.53 1516.38 3271.42 1519.95 3268.74 1525.26 3266.07 1530.57 3264.73 1537.25 3264.73 1545.28 3264.73 1553.59 3266.07 1560.45 3268.74 1565.84 3271.42 1571.24 3275.5 1574.85 3280.99 1576.68L3280.13 1579.42C3273.17 1577.59 3267.83 1573.66 3264.13 1567.61 3260.42 1561.56 3258.57 1554.24 3258.57 1545.63 3258.57 1537.06 3260.43 1529.73 3264.14 1523.66 3267.86 1517.59 3273.19 1513.64 3280.13 1511.81Z" fill="#FFFFFF" fill-rule="evenodd"/><path d="M3294.17 1543.41C3293.05 1548.57 3292.49 1552.91 3292.49 1556.42 3292.49 1559.09 3292.9 1561.04 3293.7 1562.29 3294.51 1563.54 3295.82 1564.16 3297.63 1564.16 3300.29 1564.16 3302.81 1562.37 3305.2 1558.79 3307.59 1555.22 3309.61 1550.09 3311.28 1543.41ZM3308.78 1519.39C3306 1519.39 3303.43 1521.15 3301.06 1524.66 3298.7 1528.18 3296.69 1533.22 3295.02 1539.78L3312.1 1539.78C3313.21 1534.76 3313.77 1530.45 3313.77 1526.84 3313.77 1524.34 3313.37 1522.48 3312.56 1521.24 3311.75 1520.01 3310.49 1519.39 3308.78 1519.39ZM3309.21 1516.5C3316.1 1516.5 3319.55 1520.87 3319.55 1529.62 3319.55 1532.09 3319.27 1535.04 3318.71 1538.48 3318.15 1541.91 3317.27 1545.41 3316.05 1548.97 3314.84 1552.54 3313.31 1555.69 3311.46 1558.44 3309.6 1561.18 3307.46 1563.3 3305.04 1564.8 3302.62 1566.3 3300 1567.05 3297.2 1567.05 3293.66 1567.05 3291.02 1565.96 3289.28 1563.8 3287.55 1561.64 3286.68 1558.4 3286.68 1554.07 3286.68 1551.72 3286.94 1548.82 3287.47 1545.37 3287.99 1541.93 3288.85 1538.41 3290.05 1534.81 3291.25 1531.21 3292.8 1528.01 3294.68 1525.22 3296.57 1522.43 3298.75 1520.27 3301.21 1518.77 3303.67 1517.26 3306.33 1516.5 3309.21 1516.5Z" fill="#FFFFFF" fill-rule="evenodd"/><text fill="#000000" fill-opacity="0" font-family="Arial,Arial_MSFontService,sans-serif" font-size="50.5439" x="3286.68" y="1560.73">𝜃</text><path d="M3382.1 1550.65 3426.02 1550.65 3426.02 1555.39 3382.1 1555.39ZM3382.1 1535.86 3426.02 1535.86 3426.02 1540.6 3382.1 1540.6Z" fill="#FFFFFF" fill-rule="evenodd"/><text fill="#000000" fill-opacity="0" font-family="Arial,Arial_MSFontService,sans-serif" font-size="19.5332" x="3382.1" y="1552.95">=</text><path d="M3454.55 1475.96 3540.64 1475.96 3540.64 1497.06 3535.93 1497.06C3535.38 1492 3534.28 1488 3532.62 1485.05 3530.95 1482.1 3528.43 1480.63 3525.06 1480.63L3468.81 1480.63 3511.34 1538.38 3511.34 1542.69 3465.43 1604.99 3527.27 1604.99C3530 1604.99 3532.09 1604.03 3533.54 1602.11 3534.99 1600.18 3536.24 1595.88 3537.29 1589.2L3542.56 1589.2 3540.74 1615.33 3453.09 1615.33 3453.09 1611.8 3503.03 1544.11 3454.55 1479.35Z" fill="#FFFFFF" fill-rule="evenodd"/><text fill="#000000" fill-opacity="0" font-family="Arial,Arial_MSFontService,sans-serif" font-size="139.37" x="3453.09" y="1597.91">෍</text><path d="M3630.44 1534.61C3627.99 1534.61 3625.8 1535.6 3623.85 1537.57 3621.9 1539.54 3620.38 1542.18 3619.29 1545.5 3618.19 1548.81 3617.65 1552.12 3617.65 1555.43 3617.65 1557.9 3617.98 1559.74 3618.66 1560.97 3619.34 1562.19 3620.47 1562.8 3622.07 1562.8 3623.63 1562.8 3625.17 1562.13 3626.68 1560.77 3628.19 1559.42 3629.75 1557.49 3631.35 1554.98 3632.95 1552.47 3634.09 1549.58 3634.75 1546.3L3635.08 1544.77C3635.29 1543.79 3635.43 1542.95 3635.5 1542.24 3635.57 1541.52 3635.61 1540.75 3635.61 1539.92 3635.61 1538.09 3635.22 1536.75 3634.43 1535.89 3633.65 1535.04 3632.32 1534.61 3630.44 1534.61ZM3659.79 1531.79C3661.28 1531.79 3662.47 1532.29 3663.33 1533.27 3664.2 1534.26 3664.63 1535.55 3664.63 1537.14 3664.63 1538.33 3664.41 1539.55 3663.96 1540.81L3664.42 1540.99C3666.75 1537.83 3668.99 1535.51 3671.14 1534.04 3673.29 1532.57 3675.47 1531.83 3677.68 1531.83 3679.41 1531.83 3680.86 1531.96 3682.03 1532.22L3680.32 1540.21 3676.65 1540.21C3676.5 1539.21 3676.3 1538.44 3676.04 1537.89 3675.78 1537.34 3675.47 1536.96 3675.11 1536.75 3674.76 1536.53 3674.31 1536.43 3673.76 1536.43 3672.9 1536.43 3671.97 1536.8 3670.96 1537.53 3669.95 1538.27 3668.82 1539.42 3667.56 1540.99 3666.3 1542.56 3665.29 1544.07 3664.54 1545.52 3663.8 1546.97 3663.17 1548.81 3662.67 1551.04L3659.29 1566.48 3653.12 1566.48 3658.29 1543.88C3658.62 1542.45 3658.84 1541.35 3658.93 1540.56 3659.03 1539.78 3659.07 1539.12 3659.07 1538.6 3659.07 1537.65 3658.92 1536.96 3658.61 1536.53 3658.3 1536.11 3657.81 1535.89 3657.15 1535.89 3656.41 1535.89 3655.63 1536.2 3654.81 1536.8 3653.99 1537.41 3652.87 1538.51 3651.45 1540.1L3649.41 1538.1C3651.6 1535.82 3653.43 1534.2 3654.9 1533.24 3656.38 1532.27 3658 1531.79 3659.79 1531.79ZM3629.73 1531.79C3631.27 1531.79 3632.72 1531.97 3634.06 1532.31 3635.4 1532.66 3636.79 1533.27 3638.21 1534.15L3641.49 1531.79 3643.77 1532.36 3638.53 1554.96C3638.01 1557.22 3637.75 1558.98 3637.75 1560.24 3637.75 1561.19 3637.9 1561.88 3638.21 1562.31 3638.52 1562.73 3639.01 1562.95 3639.67 1562.95 3640.39 1562.95 3641.15 1562.66 3641.96 1562.07 3642.76 1561.49 3643.9 1560.38 3645.38 1558.74L3647.41 1560.74C3645.27 1563.02 3643.45 1564.64 3641.94 1565.6 3640.43 1566.56 3638.79 1567.05 3637.04 1567.05 3635.56 1567.05 3634.39 1566.56 3633.51 1565.58 3632.63 1564.61 3632.19 1563.32 3632.19 1561.7 3632.19 1560.39 3632.46 1559 3633.01 1557.53L3632.54 1557.39C3630.26 1560.71 3628.1 1563.15 3626.06 1564.69 3624.01 1566.24 3621.85 1567.01 3619.57 1567.01 3616.96 1567.01 3614.93 1566.02 3613.49 1564.05 3612.06 1562.08 3611.34 1559.31 3611.34 1555.75 3611.34 1551.66 3612.14 1547.73 3613.74 1543.97 3615.35 1540.2 3617.55 1537.23 3620.35 1535.06 3623.16 1532.88 3626.28 1531.79 3629.73 1531.79ZM3565.37 1517.82 3580.13 1517.82 3579.74 1519.57C3578.69 1519.69 3577.88 1520 3577.3 1520.49 3576.71 1520.99 3576.3 1521.69 3576.07 1522.58 3575.83 1523.47 3575.71 1524.66 3575.71 1526.16 3575.71 1526.52 3575.74 1527.59 3575.82 1529.37L3576.81 1555.46 3576.81 1558.31 3577.17 1558.31 3592.6 1530.47C3593.51 1528.84 3594.18 1527.43 3594.64 1526.25 3595.09 1525.07 3595.31 1524.04 3595.31 1523.13 3595.31 1521.14 3594.13 1519.95 3591.75 1519.57L3592.14 1517.82 3606.72 1517.82 3606.33 1519.57C3605.69 1519.66 3605.07 1519.91 3604.49 1520.3 3603.91 1520.69 3603.26 1521.34 3602.53 1522.26 3601.81 1523.17 3600.68 1524.94 3599.16 1527.55L3576.35 1567.05 3571.61 1567.05 3569.22 1527.3C3569.13 1525.76 3568.95 1524.43 3568.7 1523.33 3568.46 1522.22 3568.06 1521.36 3567.53 1520.74 3566.99 1520.13 3566.14 1519.73 3564.98 1519.57Z" fill="#FFFFFF" fill-rule="evenodd"/><text fill="#000000" fill-opacity="0" font-family="Arial,Arial_MSFontService,sans-serif" font-size="49.2251" x="3564.98" y="1560.89">𝑉𝑎𝑟</text><path d="M3712.64 1514.97 3713.6 1517.71C3708.04 1519.54 3703.92 1523.11 3701.25 1528.43 3698.58 1533.74 3697.24 1540.41 3697.24 1548.44 3697.24 1556.76 3698.58 1563.61 3701.25 1569.01 3703.92 1574.4 3708 1578.01 3713.49 1579.84L3712.64 1582.59C3705.67 1580.76 3700.34 1576.82 3696.63 1570.77 3692.93 1564.72 3691.07 1557.4 3691.07 1548.8 3691.07 1540.22 3692.93 1532.89 3696.65 1526.82 3700.37 1520.75 3705.7 1516.8 3712.64 1514.97Z" fill="#FFFFFF" fill-rule="evenodd"/><text fill="#000000" fill-opacity="0" font-family="Arial,Arial_MSFontService,sans-serif" font-size="67.6177" x="3691.07" y="1574.14">(</text><path d="M3726.32 1517.82 3757.19 1517.82 3756.8 1519.53 3724.36 1563.2 3735.77 1563.2C3736.98 1563.2 3737.96 1563.1 3738.71 1562.89 3739.46 1562.69 3740.11 1562.39 3740.68 1561.98 3741.26 1561.58 3741.84 1561.03 3742.43 1560.34 3743.03 1559.66 3743.63 1558.81 3744.23 1557.8 3744.84 1556.79 3745.53 1555.38 3746.32 1553.57L3749.74 1553.57 3746.99 1566.48 3715.38 1566.48 3715.73 1564.73 3748.1 1521.1 3737.16 1521.1C3735.83 1521.1 3734.77 1521.22 3733.98 1521.46 3733.2 1521.69 3732.47 1522.12 3731.79 1522.72 3731.11 1523.33 3730.41 1524.17 3729.67 1525.25 3728.93 1526.33 3728.08 1527.87 3727.1 1529.87L3723.68 1529.87Z" fill="#FFFFFF" fill-rule="evenodd"/><text fill="#000000" fill-opacity="0" font-family="Arial,Arial_MSFontService,sans-serif" font-size="48.6548" x="3715.38" y="1560.39">𝑍</text><path d="M3774.03 1513.45 3775.3 1513.45 3771.47 1530.69C3771.23 1531.71 3771.06 1532.52 3770.97 1533.12 3770.87 1533.73 3770.82 1534.27 3770.82 1534.75 3770.82 1535.41 3770.96 1535.88 3771.22 1536.18 3771.49 1536.47 3771.89 1536.62 3772.43 1536.62 3772.74 1536.62 3773.05 1536.56 3773.36 1536.43 3773.67 1536.31 3774 1536.12 3774.36 1535.87 3774.71 1535.61 3775.1 1535.27 3775.52 1534.87 3775.94 1534.46 3776.41 1533.98 3776.93 1533.41L3778.69 1535.11C3777.79 1536.03 3776.98 1536.8 3776.24 1537.43 3775.51 1538.06 3774.82 1538.57 3774.16 1538.97 3773.51 1539.37 3772.86 1539.65 3772.23 1539.82 3771.6 1540 3770.94 1540.08 3770.23 1540.08 3769.57 1540.08 3768.98 1539.96 3768.46 1539.72 3767.93 1539.48 3767.48 1539.15 3767.1 1538.72 3766.72 1538.3 3766.42 1537.8 3766.22 1537.21 3766.01 1536.62 3765.91 1535.98 3765.91 1535.27 3765.91 1534.7 3765.98 1533.99 3766.11 1533.15 3766.25 1532.3 3766.43 1531.38 3766.64 1530.39 3766.86 1529.4 3767.1 1528.36 3767.36 1527.27 3767.61 1526.19 3767.87 1525.11 3768.12 1524.04 3768.37 1522.97 3768.59 1521.94 3768.79 1520.95 3768.99 1519.95 3769.13 1519.05 3769.22 1518.24 3769.25 1518.1 3769.27 1517.97 3769.27 1517.84 3769.27 1517.71 3769.27 1517.59 3769.27 1517.49 3769.24 1516.82 3769 1516.33 3768.56 1516.02 3768.12 1515.71 3767.34 1515.53 3766.22 1515.5L3766.53 1513.74ZM3772.53 1503.02 3777.71 1503.02 3776.44 1508.59 3771.31 1508.59Z" fill="#FFFFFF" fill-rule="evenodd"/><text fill="#000000" fill-opacity="0" font-family="Arial,Arial_MSFontService,sans-serif" font-size="37.0586" x="3765.91" y="1535.45">𝑖</text><path d="M3787.71 1514.97C3794.65 1516.8 3799.98 1520.75 3803.7 1526.82 3807.42 1532.89 3809.28 1540.22 3809.28 1548.8 3809.28 1557.4 3807.43 1564.72 3803.72 1570.77 3800.01 1576.82 3794.68 1580.76 3787.71 1582.59L3786.86 1579.84C3792.35 1578.01 3796.43 1574.4 3799.1 1569.01 3801.78 1563.61 3803.11 1556.76 3803.11 1548.44 3803.11 1540.41 3801.78 1533.74 3799.12 1528.43 3796.46 1523.11 3792.34 1519.54 3786.75 1517.71Z" fill="#FFFFFF" fill-rule="evenodd"/><text fill="#000000" fill-opacity="0" font-family="Arial,Arial_MSFontService,sans-serif" font-size="67.6177" x="3786.75" y="1574.14">)</text><path d="M3469.81 1633.79 3471.08 1633.79 3467.25 1651.02C3467.01 1652.04 3466.84 1652.85 3466.75 1653.46 3466.65 1654.06 3466.6 1654.6 3466.6 1655.09 3466.6 1655.74 3466.74 1656.22 3467.01 1656.51 3467.27 1656.8 3467.67 1656.95 3468.21 1656.95 3468.52 1656.95 3468.83 1656.89 3469.14 1656.77 3469.45 1656.65 3469.78 1656.46 3470.14 1656.2 3470.49 1655.94 3470.88 1655.61 3471.3 1655.2 3471.72 1654.8 3472.19 1654.31 3472.71 1653.74L3474.47 1655.45C3473.57 1656.36 3472.76 1657.14 3472.03 1657.77 3471.29 1658.4 3470.6 1658.91 3469.94 1659.31 3469.29 1659.7 3468.64 1659.99 3468.01 1660.16 3467.39 1660.33 3466.72 1660.42 3466.01 1660.42 3465.35 1660.42 3464.76 1660.3 3464.24 1660.06 3463.71 1659.81 3463.26 1659.48 3462.88 1659.06 3462.5 1658.64 3462.21 1658.13 3462 1657.55 3461.79 1656.96 3461.69 1656.31 3461.69 1655.61 3461.69 1655.04 3461.76 1654.33 3461.89 1653.48 3462.03 1652.64 3462.21 1651.72 3462.43 1650.73 3462.64 1649.74 3462.88 1648.7 3463.14 1647.61 3463.4 1646.52 3463.65 1645.44 3463.9 1644.37 3464.15 1643.3 3464.37 1642.27 3464.57 1641.28 3464.77 1640.29 3464.91 1639.39 3465 1638.58 3465.03 1638.44 3465.05 1638.31 3465.05 1638.18 3465.05 1638.05 3465.05 1637.93 3465.05 1637.83 3465.02 1637.15 3464.78 1636.66 3464.34 1636.35 3463.9 1636.04 3463.12 1635.87 3462 1635.83L3462.31 1634.07ZM3468.31 1623.36 3473.49 1623.36 3472.22 1628.92 3467.1 1628.92Z" fill="#FFFFFF" fill-rule="evenodd"/><text fill="#000000" fill-opacity="0" font-family="Arial,Arial_MSFontService,sans-serif" font-size="37.0586" x="3461.69" y="1655.79">𝑖</text><path d="M3502.28 1630.27 3505.85 1630.27 3502.85 1637.21 3512.32 1637.21 3512.32 1641.16 3501.11 1641.16 3497.95 1648.46 3512.32 1648.46 3512.32 1652.42 3496.22 1652.42 3493.24 1659.31 3489.65 1659.31 3492.62 1652.42 3482.5 1652.42 3482.5 1648.46 3494.36 1648.46 3497.51 1641.16 3482.5 1641.16 3482.5 1637.21 3499.25 1637.21Z" fill="#FFFFFF" fill-rule="evenodd"/><text fill="#000000" fill-opacity="0" font-family="Arial,Arial_MSFontService,sans-serif" font-size="29.0361" x="3482.5" y="1655.68">≠</text><path d="M3535.85 1633.79 3537.64 1633.79 3532.25 1659.15C3531.82 1661.12 3531.27 1662.8 3530.59 1664.21 3529.9 1665.62 3529.07 1666.77 3528.09 1667.66 3527.1 1668.56 3525.96 1669.22 3524.65 1669.64 3523.33 1670.07 3521.83 1670.28 3520.14 1670.28 3519.69 1670.28 3519.26 1670.26 3518.85 1670.21 3518.44 1670.17 3518.06 1670.11 3517.74 1670.02L3518.38 1667.3C3518.59 1667.39 3518.87 1667.44 3519.21 1667.47 3519.56 1667.5 3519.95 1667.51 3520.4 1667.51 3521.25 1667.51 3522 1667.4 3522.67 1667.17 3523.33 1666.95 3523.93 1666.54 3524.45 1665.96 3524.98 1665.37 3525.45 1664.56 3525.88 1663.54 3526.3 1662.51 3526.69 1661.2 3527.05 1659.59 3527.66 1656.8 3528.23 1654.17 3528.79 1651.72 3529.34 1649.27 3529.79 1647.22 3530.15 1645.56 3530.5 1643.91 3530.78 1642.59 3530.99 1641.6 3531.19 1640.62 3531.34 1639.86 3531.44 1639.33 3531.53 1638.79 3531.59 1638.41 3531.61 1638.19 3531.62 1637.96 3531.63 1637.78 3531.63 1637.65 3531.63 1637.04 3531.41 1636.6 3530.95 1636.31 3530.49 1636.03 3529.68 1635.87 3528.53 1635.83L3528.92 1634.07ZM3534.89 1623.36 3540.1 1623.36 3538.83 1628.92 3533.63 1628.92Z" fill="#FFFFFF" fill-rule="evenodd"/><text fill="#000000" fill-opacity="0" font-family="Arial,Arial_MSFontService,sans-serif" font-size="46.9185" x="3517.74" y="1664.41">𝑗</text><path d="M2655.39 967.639 3022.69 1538.04 3016.91 1541.76 2649.61 971.361ZM3028.88 1528.6 3032.21 1559.17 3005.76 1543.49Z" fill="#4472C4"/><path d="M2654.11 1353.46 3013.58 1544.53 3010.36 1550.6 2650.89 1359.54ZM3014.38 1533.27 3032.21 1558.32 3001.47 1557.56Z" fill="#4472C4"/><path d="M1.52615-3.08014 360.699 174.883 357.646 181.044-1.52615 3.08014ZM361.171 163.608 379.707 188.138 348.961 188.25Z" fill="#4472C4" transform="matrix(1 0 0 -1 2652.5 1746.64)"/><rect x="775.5" y="794.5" width="373" height="349" stroke="#000000" stroke-width="4.58333" stroke-miterlimit="8" fill="#FFFFFF"/><path d="M835.725 924.929 864.723 924.929 863.934 928.446C861.876 928.781 860.237 929.487 859.017 930.563 857.797 931.64 857.187 933.207 857.187 935.265 857.187 938.327 857.976 942.179 859.555 946.821L865.513 964.191 878.792 947.395C880.849 944.811 882.452 942.694 883.601 941.043 884.749 939.392 885.575 937.933 886.077 936.665 886.58 935.396 886.831 934.284 886.831 933.327 886.831 932.035 886.448 930.934 885.682 930.025 884.917 929.116 883.601 928.59 881.735 928.446L882.524 924.929 909.297 924.929 908.508 928.446C907.072 928.877 905.72 929.571 904.452 930.528 903.184 931.485 901.677 932.92 899.93 934.834 898.184 936.748 894.942 940.529 890.204 946.175L868.815 971.728 879.294 1000.87C880.873 1005.27 882.165 1008.63 883.17 1010.95 884.175 1013.27 885.06 1014.99 885.826 1016.09 886.448 1016.9 887.094 1017.53 887.764 1017.99 888.434 1018.44 889.558 1018.91 891.138 1019.39L890.42 1022.91 861.422 1022.91 862.139 1019.39C864.341 1019.05 866.027 1018.3 867.2 1017.13 868.372 1015.95 868.958 1014.44 868.958 1012.57 868.958 1009.75 868.384 1006.61 867.236 1003.17L859.771 981.274 843.406 1001.73C840.965 1004.79 839.195 1007.29 838.094 1009.23 836.993 1011.17 836.443 1012.83 836.443 1014.22 836.443 1016.09 836.886 1017.37 837.771 1018.06 838.656 1018.75 839.912 1019.2 841.539 1019.39L840.75 1022.91 814.049 1022.91 814.766 1019.39C816.25 1018.91 817.602 1018.22 818.822 1017.31 820.042 1016.4 821.621 1014.85 823.559 1012.68 825.497 1010.5 828.883 1006.54 833.716 1000.8L856.469 973.738 845.846 944.237C844.076 939.308 842.688 935.899 841.683 934.009 840.678 932.119 839.685 930.791 838.704 930.025 837.723 929.26 836.467 928.733 834.936 928.446Z" fill-rule="evenodd"/><text fill="#000000" fill-opacity="0" font-family="Arial,Arial_MSFontService,sans-serif" font-size="97.9761" x="814.049" y="1010.66">𝑋</text><path d="M958.113 893.693 959.523 897.716C951.373 900.398 945.339 905.631 941.42 913.416 937.502 921.2 935.543 930.979 935.543 942.752 935.543 954.943 937.502 964.991 941.42 972.898 945.339 980.804 951.321 986.099 959.367 988.781L958.113 992.804C947.907 990.122 940.088 984.348 934.654 975.484 929.221 966.62 926.504 955.883 926.504 943.274 926.504 930.7 929.229 919.964 934.68 911.065 940.131 902.165 947.942 896.375 958.113 893.693Z" fill-rule="evenodd"/><text fill="#000000" fill-opacity="0" font-family="Arial,Arial_MSFontService,sans-serif" font-size="99.1108" x="926.504" y="980.415">(</text><path d="M997.053 901.895 1000.24 901.895C1000.17 903.811 1000.12 905.526 1000.08 907.042 1000.05 908.557 1000.02 910.028 1000.01 911.456 999.988 912.884 999.979 914.295 999.979 915.688L999.979 955.395C999.979 956.475 1000.01 957.407 1000.08 958.191 1000.15 958.974 1000.27 959.636 1000.42 960.176 1000.58 960.716 1000.79 961.177 1001.05 961.56 1001.31 961.944 1001.62 962.274 1001.96 962.553 1002.38 962.971 1002.94 963.293 1003.64 963.52 1004.33 963.746 1005.22 963.938 1006.3 964.094 1007.38 964.251 1008.68 964.373 1010.19 964.46 1011.71 964.547 1013.53 964.608 1015.65 964.643L1015.65 969.188 974.222 969.188 974.222 964.643C976.277 964.573 978.018 964.495 979.446 964.408 980.874 964.321 982.094 964.199 983.104 964.042 984.114 963.885 984.923 963.711 985.533 963.52 986.143 963.328 986.674 963.093 987.127 962.814 987.614 962.501 988.032 962.161 988.38 961.796 988.729 961.43 989.007 960.968 989.216 960.411 989.425 959.854 989.591 959.174 989.713 958.373 989.835 957.572 989.896 956.58 989.896 955.395L989.896 917.935C989.896 916.577 989.634 915.619 989.112 915.061 988.589 914.504 987.841 914.225 986.865 914.225 985.786 914.225 984.183 914.783 982.059 915.897 979.934 917.012 977.182 918.666 973.804 920.861 973.351 920.06 972.933 919.258 972.55 918.457 972.167 917.656 971.766 916.838 971.348 916.002 975.667 913.633 979.943 911.274 984.175 908.922 988.407 906.571 992.699 904.229 997.053 901.895Z" fill-rule="evenodd"/><text fill="#000000" fill-opacity="0" font-family="Arial,Arial_MSFontService,sans-serif" font-size="67.293" x="971.348" y="960.777">1</text><path d="M1027.06 893.693C1037.23 896.375 1045.04 902.165 1050.49 911.065 1055.94 919.964 1058.67 930.7 1058.67 943.274 1058.67 955.883 1055.95 966.62 1050.52 975.484 1045.08 984.348 1037.26 990.122 1027.06 992.804L1025.8 988.781C1033.85 986.099 1039.83 980.804 1043.75 972.898 1047.67 964.991 1049.63 954.943 1049.63 942.752 1049.63 930.979 1047.68 921.2 1043.78 913.416 1039.88 905.631 1033.83 900.398 1025.65 897.716Z" fill-rule="evenodd"/><text fill="#000000" fill-opacity="0" font-family="Arial,Arial_MSFontService,sans-serif" font-size="99.1108" x="1025.65" y="980.415">)</text><rect x="23.4999" y="1183.5" width="373" height="349" stroke="#000000" stroke-width="4.58333" stroke-miterlimit="8" fill="#FFFFFF"/><path d="M163.9 1309.62 192.898 1309.62 192.109 1313.14C190.051 1313.48 188.412 1314.18 187.192 1315.26 185.972 1316.33 185.361 1317.9 185.361 1319.96 185.361 1323.02 186.151 1326.87 187.73 1331.52L193.688 1348.89 206.966 1332.09C209.024 1329.51 210.627 1327.39 211.776 1325.74 212.924 1324.09 213.749 1322.63 214.252 1321.36 214.754 1320.09 215.006 1318.98 215.006 1318.02 215.006 1316.73 214.623 1315.63 213.857 1314.72 213.091 1313.81 211.776 1313.28 209.909 1313.14L210.699 1309.62 237.472 1309.62 236.682 1313.14C235.247 1313.57 233.895 1314.27 232.627 1315.22 231.359 1316.18 229.851 1317.61 228.105 1319.53 226.358 1321.44 223.116 1325.22 218.379 1330.87L196.989 1356.42 207.469 1385.56C209.048 1389.97 210.34 1393.33 211.345 1395.65 212.35 1397.97 213.235 1399.68 214.001 1400.78 214.623 1401.59 215.269 1402.23 215.939 1402.68 216.609 1403.14 217.733 1403.6 219.312 1404.08L218.594 1407.6 189.596 1407.6 190.314 1404.08C192.515 1403.75 194.202 1402.99 195.374 1401.82 196.547 1400.65 197.133 1399.13 197.133 1397.26 197.133 1394.44 196.559 1391.31 195.41 1387.86L187.945 1365.97 171.58 1386.43C169.14 1389.49 167.369 1391.99 166.269 1393.93 165.168 1395.86 164.618 1397.53 164.618 1398.91 164.618 1400.78 165.06 1402.06 165.946 1402.75 166.831 1403.45 168.087 1403.89 169.714 1404.08L168.924 1407.6 142.223 1407.6 142.941 1404.08C144.424 1403.6 145.776 1402.91 146.996 1402 148.217 1401.09 149.796 1399.55 151.734 1397.37 153.672 1395.19 157.057 1391.23 161.89 1385.49L184.644 1358.43 174.021 1328.93C172.25 1324 170.862 1320.59 169.858 1318.7 168.853 1316.81 167.86 1315.49 166.879 1314.72 165.898 1313.95 164.642 1313.43 163.111 1313.14Z" fill-rule="evenodd"/><text fill="#000000" fill-opacity="0" font-family="Arial,Arial_MSFontService,sans-serif" font-size="97.9761" x="142.223" y="1395.35">𝑋</text><rect x="769.5" y="1184.5" width="373" height="350" stroke="#000000" stroke-width="4.58333" stroke-miterlimit="8" fill="#FFFFFF"/><path d="M829.608 1315.31 858.606 1315.31 857.816 1318.83C855.759 1319.17 854.12 1319.87 852.9 1320.95 851.679 1322.03 851.069 1323.59 851.069 1325.65 851.069 1328.71 851.859 1332.56 853.438 1337.21L859.396 1354.58 872.674 1337.78C874.732 1335.2 876.335 1333.08 877.483 1331.43 878.632 1329.78 879.457 1328.32 879.96 1327.05 880.462 1325.78 880.713 1324.67 880.713 1323.71 880.713 1322.42 880.331 1321.32 879.565 1320.41 878.799 1319.5 877.483 1318.97 875.617 1318.83L876.407 1315.31 903.18 1315.31 902.39 1318.83C900.955 1319.26 899.603 1319.96 898.335 1320.91 897.067 1321.87 895.559 1323.31 893.813 1325.22 892.066 1327.13 888.824 1330.91 884.087 1336.56L862.697 1362.11 873.177 1391.25C874.756 1395.66 876.048 1399.02 877.053 1401.34 878.058 1403.66 878.943 1405.37 879.708 1406.47 880.331 1407.28 880.977 1407.92 881.646 1408.37 882.316 1408.83 883.441 1409.29 885.02 1409.77L884.302 1413.29 855.304 1413.29 856.022 1409.77C858.223 1409.44 859.91 1408.68 861.082 1407.51 862.255 1406.34 862.841 1404.82 862.841 1402.95 862.841 1400.13 862.267 1397 861.118 1393.55L853.653 1371.66 837.288 1392.12C834.848 1395.18 833.077 1397.68 831.977 1399.62 830.876 1401.55 830.326 1403.22 830.326 1404.61 830.326 1406.47 830.768 1407.75 831.654 1408.45 832.539 1409.14 833.795 1409.58 835.422 1409.77L834.632 1413.29 807.931 1413.29 808.649 1409.77C810.132 1409.29 811.484 1408.6 812.704 1407.69 813.925 1406.78 815.504 1405.24 817.442 1403.06 819.38 1400.88 822.765 1396.93 827.598 1391.18L850.352 1364.12 839.729 1334.62C837.958 1329.69 836.57 1326.28 835.565 1324.39 834.561 1322.5 833.568 1321.18 832.587 1320.41 831.606 1319.64 830.35 1319.12 828.818 1318.83Z" fill-rule="evenodd"/><text fill="#000000" fill-opacity="0" font-family="Arial,Arial_MSFontService,sans-serif" font-size="97.9761" x="807.931" y="1401.04">𝑋</text><path d="M951.995 1284.08 953.406 1288.1C945.256 1290.78 939.221 1296.02 935.303 1303.8 931.384 1311.59 929.425 1321.36 929.425 1333.14 929.425 1345.33 931.384 1355.38 935.303 1363.28 939.221 1371.19 945.203 1376.48 953.249 1379.17L951.995 1383.19C941.79 1380.51 933.97 1374.73 928.537 1365.87 923.103 1357 920.386 1346.27 920.386 1333.66 920.386 1321.09 923.112 1310.35 928.563 1301.45 934.014 1292.55 941.825 1286.76 951.995 1284.08Z" fill-rule="evenodd"/><text fill="#000000" fill-opacity="0" font-family="Arial,Arial_MSFontService,sans-serif" font-size="99.1108" x="920.386" y="1370.8">(</text><path d="M986.861 1291.91C990.483 1291.91 993.574 1292.32 996.134 1293.14 998.694 1293.96 1000.78 1295.07 1002.38 1296.46 1003.98 1297.85 1005.14 1299.53 1005.85 1301.48 1006.57 1303.43 1006.92 1305.53 1006.92 1307.8 1006.92 1309.16 1006.83 1310.42 1006.64 1311.59 1006.44 1312.75 1006.11 1313.9 1005.64 1315.03 1005.17 1316.17 1004.55 1317.31 1003.79 1318.46 1003.02 1319.61 1002.06 1320.82 1000.91 1322.11 1000.04 1323.23 998.912 1324.52 997.519 1325.98 996.126 1327.44 994.602 1329.01 992.947 1330.68 991.293 1332.35 989.56 1334.09 987.749 1335.91 985.938 1337.72 984.179 1339.51 982.472 1341.29 980.765 1343.06 979.198 1344.79 977.77 1346.46 976.342 1348.13 975.175 1349.66 974.269 1351.06L993.6 1351.06C995.237 1351.06 996.544 1351 997.519 1350.87 998.494 1350.75 999.304 1350.48 999.948 1350.06 1000.59 1349.65 1001.14 1349.01 1001.59 1348.16 1002.05 1347.3 1002.57 1346.13 1003.16 1344.63L1008.02 1344.63C1007.85 1347.1 1007.68 1349.59 1007.52 1352.1 1007.37 1354.61 1007.2 1357.1 1007.03 1359.57L962.775 1359.57 962.775 1356.86C963.611 1354.98 964.586 1353.12 965.701 1351.29 966.815 1349.46 968.069 1347.61 969.463 1345.73 970.856 1343.85 972.441 1341.91 974.217 1339.9 975.993 1337.9 977.961 1335.82 980.121 1333.66 983.395 1330.39 986.06 1327.59 988.115 1325.27 990.169 1322.96 991.789 1320.89 992.973 1319.08 994.158 1317.27 994.967 1315.6 995.403 1314.07 995.838 1312.53 996.056 1310.9 996.056 1309.16 996.056 1307.38 995.803 1305.74 995.298 1304.24 994.793 1302.75 994.071 1301.48 993.13 1300.43 992.19 1299.39 990.997 1298.57 989.551 1297.98 988.106 1297.38 986.443 1297.09 984.562 1297.09 981.323 1297.09 978.606 1297.97 976.411 1299.73 974.217 1301.48 972.51 1304.04 971.291 1307.38L964.447 1307.38 964.447 1297.19C968.905 1295.35 973.007 1294 976.751 1293.17 980.495 1292.33 983.865 1291.91 986.861 1291.91Z" fill-rule="evenodd"/><text fill="#000000" fill-opacity="0" font-family="Arial,Arial_MSFontService,sans-serif" font-size="67.6587" x="962.775" y="1351.12">2</text><path d="M1020.94 1284.08C1031.11 1286.76 1038.92 1292.55 1044.37 1301.45 1049.82 1310.35 1052.55 1321.09 1052.55 1333.66 1052.55 1346.27 1049.83 1357 1044.4 1365.87 1038.97 1374.73 1031.15 1380.51 1020.94 1383.19L1019.69 1379.17C1027.73 1376.48 1033.71 1371.19 1037.63 1363.28 1041.55 1355.38 1043.51 1345.33 1043.51 1333.14 1043.51 1321.36 1041.56 1311.59 1037.66 1303.8 1033.76 1296.02 1027.72 1290.78 1019.53 1288.1Z" fill-rule="evenodd"/><text fill="#000000" fill-opacity="0" font-family="Arial,Arial_MSFontService,sans-serif" font-size="99.1108" x="1019.53" y="1370.8">)</text><rect x="769.5" y="1573.5" width="373" height="350" stroke="#000000" stroke-width="4.58333" stroke-miterlimit="8" fill="#FFFFFF"/><path d="M829.608 1704.34 858.606 1704.34 857.816 1707.86C855.759 1708.19 854.12 1708.9 852.9 1709.97 851.679 1711.05 851.069 1712.62 851.069 1714.68 851.069 1717.74 851.859 1721.59 853.438 1726.23L859.396 1743.6 872.674 1726.81C874.732 1724.22 876.335 1722.1 877.483 1720.45 878.632 1718.8 879.457 1717.34 879.96 1716.08 880.462 1714.81 880.713 1713.69 880.713 1712.74 880.713 1711.45 880.331 1710.34 879.565 1709.44 878.799 1708.53 877.483 1708 875.617 1707.86L876.407 1704.34 903.18 1704.34 902.39 1707.86C900.955 1708.29 899.603 1708.98 898.335 1709.94 897.067 1710.9 895.559 1712.33 893.813 1714.24 892.066 1716.16 888.824 1719.94 884.087 1725.59L862.697 1751.14 873.177 1780.28C874.756 1784.68 876.048 1788.04 877.053 1790.36 878.058 1792.69 878.943 1794.4 879.708 1795.5 880.331 1796.31 880.977 1796.94 881.646 1797.4 882.316 1797.85 883.441 1798.32 885.02 1798.8L884.302 1802.32 855.304 1802.32 856.022 1798.8C858.223 1798.46 859.91 1797.71 861.082 1796.54 862.255 1795.37 862.841 1793.85 862.841 1791.98 862.841 1789.16 862.267 1786.02 861.118 1782.58L853.653 1760.68 837.288 1781.14C834.848 1784.2 833.077 1786.7 831.977 1788.64 830.876 1790.58 830.326 1792.24 830.326 1793.63 830.326 1795.5 830.768 1796.78 831.654 1797.47 832.539 1798.16 833.795 1798.61 835.422 1798.8L834.632 1802.32 807.931 1802.32 808.649 1798.8C810.132 1798.32 811.484 1797.63 812.704 1796.72 813.925 1795.81 815.504 1794.26 817.442 1792.09 819.38 1789.91 822.765 1785.95 827.598 1780.21L850.352 1753.15 839.729 1723.65C837.958 1718.72 836.57 1715.31 835.565 1713.42 834.561 1711.53 833.568 1710.2 832.587 1709.44 831.606 1708.67 830.35 1708.14 828.818 1707.86Z" fill-rule="evenodd"/><text fill="#000000" fill-opacity="0" font-family="Arial,Arial_MSFontService,sans-serif" font-size="97.9761" x="807.931" y="1790.07">𝑋</text><path d="M951.995 1673.1 953.406 1677.13C945.256 1679.81 939.221 1685.04 935.303 1692.83 931.384 1700.61 929.425 1710.39 929.425 1722.16 929.425 1734.35 931.384 1744.4 935.303 1752.31 939.221 1760.22 945.203 1765.51 953.249 1768.19L951.995 1772.21C941.79 1769.53 933.97 1763.76 928.537 1754.89 923.103 1746.03 920.386 1735.29 920.386 1722.68 920.386 1710.11 923.112 1699.37 928.563 1690.48 934.014 1681.58 941.825 1675.79 951.995 1673.1Z" fill-rule="evenodd"/><text fill="#000000" fill-opacity="0" font-family="Arial,Arial_MSFontService,sans-serif" font-size="99.1108" x="920.386" y="1759.83">(</text><path d="M986.756 1680.94C989.543 1680.94 992.146 1681.24 994.567 1681.83 996.988 1682.42 999.086 1683.32 1000.86 1684.52 1002.64 1685.72 1004.02 1687.22 1005.02 1689.01 1006.01 1690.81 1006.51 1692.89 1006.51 1695.26 1006.51 1697.48 1006.19 1699.45 1005.56 1701.16 1004.94 1702.87 1003.97 1704.42 1002.67 1705.81 1001.36 1707.2 999.757 1708.47 997.858 1709.6 995.96 1710.73 993.774 1711.82 991.302 1712.86L991.302 1713.49C993.635 1713.91 995.812 1714.58 997.832 1715.5 999.852 1716.42 1001.62 1717.59 1003.14 1719 1004.65 1720.41 1005.84 1722.04 1006.71 1723.89 1007.58 1725.73 1008.02 1727.77 1008.02 1730 1008.02 1732.79 1007.5 1735.37 1006.45 1737.76 1005.41 1740.14 1003.84 1742.21 1001.75 1743.95 999.661 1745.69 997.083 1747.05 994.018 1748.02 990.953 1749 987.366 1749.49 983.256 1749.49 980.016 1749.49 976.725 1749.17 973.381 1748.52 970.037 1747.88 966.868 1747.03 963.872 1745.99L963.872 1734.7 970.612 1734.7C971.169 1736.44 971.831 1737.93 972.597 1739.17 973.364 1740.41 974.261 1741.42 975.288 1742.2 976.316 1742.98 977.5 1743.55 978.841 1743.9 980.182 1744.25 981.706 1744.42 983.412 1744.42 987.906 1744.42 991.31 1743.35 993.626 1741.21 995.943 1739.06 997.101 1735.82 997.101 1731.46 997.101 1726.83 995.577 1723.32 992.529 1720.93 989.482 1718.55 984.962 1717.36 978.971 1717.36L974.374 1717.36 974.374 1712.34C978.031 1712.17 981.192 1711.65 983.856 1710.8 986.521 1709.95 988.741 1708.84 990.518 1707.48 992.294 1706.12 993.618 1704.54 994.489 1702.73 995.359 1700.92 995.795 1698.98 995.795 1696.93 995.795 1693.58 994.802 1690.95 992.817 1689.01 990.831 1687.08 987.958 1686.11 984.196 1686.11 981.026 1686.11 978.371 1686.98 976.229 1688.72 974.086 1690.47 972.441 1693.06 971.291 1696.51L964.656 1696.51 964.656 1686.22C968.766 1684.48 972.641 1683.16 976.281 1682.27 979.921 1681.38 983.412 1680.94 986.756 1680.94Z" fill-rule="evenodd"/><text fill="#000000" fill-opacity="0" font-family="Arial,Arial_MSFontService,sans-serif" font-size="68.5469" x="963.872" y="1740.92">3</text><path d="M1020.94 1673.1C1031.11 1675.79 1038.92 1681.58 1044.37 1690.48 1049.82 1699.37 1052.55 1710.11 1052.55 1722.68 1052.55 1735.29 1049.83 1746.03 1044.4 1754.89 1038.97 1763.76 1031.15 1769.53 1020.94 1772.21L1019.69 1768.19C1027.73 1765.51 1033.71 1760.22 1037.63 1752.31 1041.55 1744.4 1043.51 1734.35 1043.51 1722.16 1043.51 1710.39 1041.56 1700.61 1037.66 1692.83 1033.76 1685.04 1027.72 1679.81 1019.53 1677.13Z" fill-rule="evenodd"/><text fill="#000000" fill-opacity="0" font-family="Arial,Arial_MSFontService,sans-serif" font-size="99.1108" x="1019.53" y="1759.83">)</text><path d="M4.91992-4.80208 360.618 359.625 350.778 369.229-4.91992 4.80208ZM365.655 345.1 379.708 389.026 336.136 373.912Z" fill="#A5A5A5" transform="matrix(1 0 0 -1 396 1358.03)"/><path d="M396.025 1351.13 735.241 1352.36 735.191 1366.11 395.975 1364.88ZM728.416 1338.58 769.591 1359.36 728.266 1379.83Z" fill="#A5A5A5"/><path d="M400.967 1353.25 750.791 1718.8 740.857 1728.3 391.033 1362.75ZM755.972 1704.32 769.591 1748.39 726.17 1732.84Z" fill="#A5A5A5"/><text font-family="Calibri,Calibri_MSFontService,sans-serif" font-weight="400" font-size="64" transform="matrix(1 0 0 1 348.269 1731)">Random </text><text font-family="Calibri,Calibri_MSFontService,sans-serif" font-weight="400" font-size="64" transform="matrix(1 0 0 1 261.323 1808)">augmentations</text><text fill="#ED7D31" font-family="Calibri,Calibri_MSFontService,sans-serif" font-weight="400" font-size="64" transform="matrix(1 0 0 1 3124.66 869)">Sum of pairwise representation </text><text fill="#ED7D31" font-family="Calibri,Calibri_MSFontService,sans-serif" font-weight="400" font-size="64" transform="matrix(1 0 0 1 3378.07 946)">correlations</text><text fill="#4472C4" font-family="Calibri,Calibri_MSFontService,sans-serif" font-weight="400" font-size="64" transform="matrix(1 0 0 1 3241.99 1816)">Sum of representation </text><text fill="#4472C4" font-family="Calibri,Calibri_MSFontService,sans-serif" font-weight="400" font-size="64" transform="matrix(1 0 0 1 3410.77 1893)">variances</text><rect x="1528.5" y="794.5" width="372" height="349" stroke="#000000" stroke-width="4.58333" stroke-miterlimit="8" fill="#FFFFFF"/><path d="M1579.65 924.929 1607.43 924.929 1606.64 928.446C1604.63 928.637 1603.1 929.224 1602.04 930.205 1600.99 931.186 1600.46 932.705 1600.46 934.762 1600.46 937.681 1601.13 941.51 1602.47 946.247L1610.08 973.307 1627.74 949.692C1631.33 944.907 1633.68 941.354 1634.81 939.033 1635.93 936.712 1636.5 934.667 1636.5 932.896 1636.5 931.556 1636.04 930.528 1635.13 929.81 1634.22 929.092 1632.91 928.637 1631.18 928.446L1631.97 924.929 1658.89 924.929 1658.1 928.446C1656.95 928.685 1655.96 929.032 1655.12 929.487 1654.28 929.941 1653.33 930.671 1652.25 931.676 1651.17 932.681 1649.71 934.296 1647.87 936.521 1646.03 938.746 1643.67 941.725 1640.8 945.457L1612.88 981.705 1608.43 1002.02C1608 1003.93 1607.7 1005.43 1607.53 1006.5 1607.37 1007.58 1607.22 1008.73 1607.1 1009.95 1606.98 1011.17 1606.92 1012.26 1606.92 1013.22 1606.92 1014.7 1607.16 1015.86 1607.64 1016.7 1608.12 1017.53 1608.84 1018.14 1609.79 1018.53 1610.75 1018.91 1612.4 1019.2 1614.75 1019.39L1613.96 1022.91 1583.74 1022.91 1584.53 1019.39C1586.44 1019.1 1587.85 1018.72 1588.76 1018.24 1589.67 1017.76 1590.47 1017.02 1591.17 1016.01 1591.86 1015.01 1592.56 1013.43 1593.25 1011.28 1593.94 1009.12 1594.77 1005.87 1595.73 1001.52L1599.96 981.705 1589.55 945.457C1587.97 939.906 1586.73 936.15 1585.82 934.188 1584.91 932.226 1583.94 930.839 1582.91 930.025 1581.89 929.212 1580.53 928.685 1578.86 928.446Z" fill-rule="evenodd"/><text fill="#000000" fill-opacity="0" font-family="Arial,Arial_MSFontService,sans-serif" font-size="97.9761" x="1578.86" y="1010.66">𝑌</text><path d="M1706.71 893.693 1708.12 897.716C1699.97 900.398 1693.93 905.631 1690.02 913.416 1686.1 921.2 1684.14 930.979 1684.14 942.752 1684.14 954.943 1686.1 964.991 1690.02 972.898 1693.93 980.804 1699.92 986.099 1707.96 988.781L1706.71 992.804C1696.5 990.122 1688.68 984.348 1683.25 975.484 1677.82 966.62 1675.1 955.883 1675.1 943.274 1675.1 930.7 1677.83 919.964 1683.28 911.065 1688.73 902.165 1696.54 896.375 1706.71 893.693Z" fill-rule="evenodd"/><text fill="#000000" fill-opacity="0" font-family="Arial,Arial_MSFontService,sans-serif" font-size="99.1108" x="1675.1" y="980.415">(</text><path d="M1745.65 901.895 1748.84 901.895C1748.77 903.811 1748.71 905.526 1748.68 907.042 1748.64 908.557 1748.62 910.028 1748.6 911.456 1748.58 912.884 1748.58 914.295 1748.58 915.688L1748.58 955.395C1748.58 956.475 1748.61 957.407 1748.68 958.191 1748.75 958.974 1748.86 959.636 1749.02 960.176 1749.18 960.716 1749.39 961.177 1749.65 961.56 1749.91 961.944 1750.21 962.274 1750.56 962.553 1750.98 962.971 1751.54 963.293 1752.23 963.52 1752.93 963.746 1753.82 963.938 1754.9 964.094 1755.98 964.251 1757.27 964.373 1758.79 964.46 1760.3 964.547 1762.12 964.608 1764.25 964.643L1764.25 969.188 1722.82 969.188 1722.82 964.643C1724.87 964.573 1726.61 964.495 1728.04 964.408 1729.47 964.321 1730.69 964.199 1731.7 964.042 1732.71 963.885 1733.52 963.711 1734.13 963.52 1734.74 963.328 1735.27 963.093 1735.72 962.814 1736.21 962.501 1736.63 962.161 1736.98 961.796 1737.32 961.43 1737.6 960.968 1737.81 960.411 1738.02 959.854 1738.19 959.174 1738.31 958.373 1738.43 957.572 1738.49 956.58 1738.49 955.395L1738.49 917.935C1738.49 916.577 1738.23 915.619 1737.71 915.061 1737.19 914.504 1736.44 914.225 1735.46 914.225 1734.38 914.225 1732.78 914.783 1730.65 915.897 1728.53 917.012 1725.78 918.666 1722.4 920.861 1721.95 920.06 1721.53 919.258 1721.15 918.457 1720.76 917.656 1720.36 916.838 1719.94 916.002 1724.26 913.633 1728.54 911.274 1732.77 908.922 1737 906.571 1741.3 904.229 1745.65 901.895Z" fill-rule="evenodd"/><text fill="#000000" fill-opacity="0" font-family="Arial,Arial_MSFontService,sans-serif" font-size="67.293" x="1719.94" y="960.777">1</text><path d="M1775.65 893.693C1785.82 896.375 1793.64 902.165 1799.09 911.065 1804.54 919.964 1807.26 930.7 1807.26 943.274 1807.26 955.883 1804.55 966.62 1799.11 975.484 1793.68 984.348 1785.86 990.122 1775.65 992.804L1774.4 988.781C1782.45 986.099 1788.43 980.804 1792.35 972.898 1796.27 964.991 1798.22 954.943 1798.22 942.752 1798.22 930.979 1796.27 921.2 1792.37 913.416 1788.47 905.631 1782.43 900.398 1774.24 897.716Z" fill-rule="evenodd"/><text fill="#000000" fill-opacity="0" font-family="Arial,Arial_MSFontService,sans-serif" font-size="99.1108" x="1774.24" y="980.415">)</text><rect x="1528.5" y="1182.5" width="372" height="349" stroke="#000000" stroke-width="4.58333" stroke-miterlimit="8" fill="#FFFFFF"/><path d="M1579.65 1312.77 1607.43 1312.77 1606.64 1316.29C1604.63 1316.48 1603.1 1317.07 1602.04 1318.05 1600.99 1319.03 1600.46 1320.55 1600.46 1322.61 1600.46 1325.53 1601.13 1329.36 1602.47 1334.09L1610.08 1361.15 1627.74 1337.54C1631.33 1332.75 1633.68 1329.2 1634.81 1326.88 1635.93 1324.56 1636.5 1322.51 1636.5 1320.74 1636.5 1319.4 1636.04 1318.37 1635.13 1317.66 1634.22 1316.94 1632.91 1316.48 1631.18 1316.29L1631.97 1312.77 1658.89 1312.77 1658.1 1316.29C1656.95 1316.53 1655.96 1316.88 1655.12 1317.33 1654.28 1317.79 1653.33 1318.52 1652.25 1319.52 1651.17 1320.53 1649.71 1322.14 1647.87 1324.37 1646.03 1326.59 1643.67 1329.57 1640.8 1333.3L1612.88 1369.55 1608.43 1389.86C1608 1391.78 1607.7 1393.27 1607.53 1394.35 1607.37 1395.43 1607.22 1396.57 1607.1 1397.79 1606.98 1399.02 1606.92 1400.1 1606.92 1401.06 1606.92 1402.54 1607.16 1403.7 1607.64 1404.54 1608.12 1405.38 1608.84 1405.99 1609.79 1406.37 1610.75 1406.76 1612.4 1407.04 1614.75 1407.23L1613.96 1410.75 1583.74 1410.75 1584.53 1407.23C1586.44 1406.95 1587.85 1406.56 1588.76 1406.09 1589.67 1405.61 1590.47 1404.86 1591.17 1403.86 1591.86 1402.86 1592.56 1401.28 1593.25 1399.12 1593.94 1396.97 1594.77 1393.72 1595.73 1389.36L1599.96 1369.55 1589.55 1333.3C1587.97 1327.75 1586.73 1324 1585.82 1322.03 1584.91 1320.07 1583.94 1318.68 1582.91 1317.87 1581.89 1317.06 1580.53 1316.53 1578.86 1316.29Z" fill-rule="evenodd"/><text fill="#000000" fill-opacity="0" font-family="Arial,Arial_MSFontService,sans-serif" font-size="97.9761" x="1578.86" y="1398.5">𝑌</text><path d="M1706.71 1281.54 1708.12 1285.56C1699.97 1288.24 1693.93 1293.48 1690.02 1301.26 1686.1 1309.05 1684.14 1318.82 1684.14 1330.6 1684.14 1342.79 1686.1 1352.84 1690.02 1360.74 1693.93 1368.65 1699.92 1373.94 1707.96 1376.63L1706.71 1380.65C1696.5 1377.97 1688.68 1372.19 1683.25 1363.33 1677.82 1354.47 1675.1 1343.73 1675.1 1331.12 1675.1 1318.55 1677.83 1307.81 1683.28 1298.91 1688.73 1290.01 1696.54 1284.22 1706.71 1281.54Z" fill-rule="evenodd"/><text fill="#000000" fill-opacity="0" font-family="Arial,Arial_MSFontService,sans-serif" font-size="99.1108" x="1675.1" y="1368.26">(</text><path d="M1741.57 1289.38C1745.2 1289.38 1748.29 1289.78 1750.85 1290.6 1753.41 1291.42 1755.49 1292.53 1757.09 1293.92 1758.69 1295.31 1759.85 1296.99 1760.57 1298.94 1761.28 1300.89 1761.64 1302.99 1761.64 1305.26 1761.64 1306.62 1761.54 1307.88 1761.35 1309.05 1761.16 1310.21 1760.83 1311.36 1760.36 1312.49 1759.89 1313.63 1759.27 1314.77 1758.5 1315.92 1757.74 1317.07 1756.78 1318.28 1755.63 1319.57 1754.76 1320.69 1753.63 1321.98 1752.23 1323.44 1750.84 1324.9 1749.32 1326.47 1747.66 1328.14 1746.01 1329.81 1744.27 1331.56 1742.46 1333.37 1740.65 1335.18 1738.89 1336.97 1737.19 1338.75 1735.48 1340.52 1733.91 1342.25 1732.48 1343.92 1731.06 1345.59 1729.89 1347.12 1728.98 1348.52L1748.31 1348.52C1749.95 1348.52 1751.26 1348.46 1752.23 1348.33 1753.21 1348.21 1754.02 1347.94 1754.66 1347.53 1755.31 1347.11 1755.85 1346.47 1756.31 1345.62 1756.76 1344.76 1757.28 1343.59 1757.88 1342.09L1762.73 1342.09C1762.56 1344.56 1762.39 1347.05 1762.24 1349.56 1762.08 1352.07 1761.92 1354.56 1761.74 1357.03L1717.49 1357.03 1717.49 1354.32C1718.32 1352.44 1719.3 1350.58 1720.41 1348.75 1721.53 1346.92 1722.78 1345.07 1724.18 1343.19 1725.57 1341.31 1727.15 1339.37 1728.93 1337.36 1730.71 1335.36 1732.67 1333.28 1734.83 1331.12 1738.11 1327.85 1740.77 1325.05 1742.83 1322.73 1744.88 1320.42 1746.5 1318.35 1747.69 1316.54 1748.87 1314.73 1749.68 1313.06 1750.12 1311.53 1750.55 1309.99 1750.77 1308.36 1750.77 1306.62 1750.77 1304.84 1750.52 1303.2 1750.01 1301.71 1749.51 1300.21 1748.78 1298.94 1747.84 1297.89 1746.9 1296.85 1745.71 1296.03 1744.26 1295.44 1742.82 1294.84 1741.16 1294.55 1739.28 1294.55 1736.04 1294.55 1733.32 1295.43 1731.12 1297.19 1728.93 1298.94 1727.22 1301.5 1726 1304.84L1719.16 1304.84 1719.16 1294.65C1723.62 1292.81 1727.72 1291.47 1731.46 1290.63 1735.21 1289.79 1738.58 1289.38 1741.57 1289.38Z" fill-rule="evenodd"/><text fill="#000000" fill-opacity="0" font-family="Arial,Arial_MSFontService,sans-serif" font-size="67.6587" x="1717.49" y="1348.58">2</text><path d="M1775.65 1281.54C1785.82 1284.22 1793.64 1290.01 1799.09 1298.91 1804.54 1307.81 1807.26 1318.55 1807.26 1331.12 1807.26 1343.73 1804.55 1354.47 1799.11 1363.33 1793.68 1372.19 1785.86 1377.97 1775.65 1380.65L1774.4 1376.63C1782.45 1373.94 1788.43 1368.65 1792.35 1360.74 1796.27 1352.84 1798.22 1342.79 1798.22 1330.6 1798.22 1318.82 1796.27 1309.05 1792.37 1301.26 1788.47 1293.48 1782.43 1288.24 1774.24 1285.56Z" fill-rule="evenodd"/><text fill="#000000" fill-opacity="0" font-family="Arial,Arial_MSFontService,sans-serif" font-size="99.1108" x="1774.24" y="1368.26">)</text><rect x="1528.5" y="1571.5" width="372" height="349" stroke="#000000" stroke-width="4.58333" stroke-miterlimit="8" fill="#FFFFFF"/><path d="M1579.65 1701.81 1607.43 1701.81 1606.64 1705.33C1604.63 1705.52 1603.1 1706.1 1602.04 1707.09 1600.99 1708.07 1600.46 1709.59 1600.46 1711.64 1600.46 1714.56 1601.13 1718.39 1602.47 1723.13L1610.08 1750.19 1627.74 1726.57C1631.33 1721.79 1633.68 1718.23 1634.81 1715.91 1635.93 1713.59 1636.5 1711.55 1636.5 1709.78 1636.5 1708.44 1636.04 1707.41 1635.13 1706.69 1634.22 1705.97 1632.91 1705.52 1631.18 1705.33L1631.97 1701.81 1658.89 1701.81 1658.1 1705.33C1656.95 1705.57 1655.96 1705.91 1655.12 1706.37 1654.28 1706.82 1653.33 1707.55 1652.25 1708.56 1651.17 1709.56 1649.71 1711.18 1647.87 1713.4 1646.03 1715.63 1643.67 1718.61 1640.8 1722.34L1612.88 1758.59 1608.43 1778.9C1608 1780.81 1607.7 1782.31 1607.53 1783.38 1607.37 1784.46 1607.22 1785.61 1607.1 1786.83 1606.98 1788.05 1606.92 1789.14 1606.92 1790.1 1606.92 1791.58 1607.16 1792.74 1607.64 1793.58 1608.12 1794.41 1608.84 1795.02 1609.79 1795.41 1610.75 1795.79 1612.4 1796.08 1614.75 1796.27L1613.96 1799.79 1583.74 1799.79 1584.53 1796.27C1586.44 1795.98 1587.85 1795.6 1588.76 1795.12 1589.67 1794.64 1590.47 1793.9 1591.17 1792.9 1591.86 1791.89 1592.56 1790.31 1593.25 1788.16 1593.94 1786 1594.77 1782.75 1595.73 1778.4L1599.96 1758.59 1589.55 1722.34C1587.97 1716.79 1586.73 1713.03 1585.82 1711.07 1584.91 1709.11 1583.94 1707.72 1582.91 1706.91 1581.89 1706.09 1580.53 1705.57 1578.86 1705.33Z" fill-rule="evenodd"/><text fill="#000000" fill-opacity="0" font-family="Arial,Arial_MSFontService,sans-serif" font-size="97.9761" x="1578.86" y="1787.54">𝑌</text><path d="M1706.71 1670.57 1708.12 1674.6C1699.97 1677.28 1693.93 1682.51 1690.02 1690.3 1686.1 1698.08 1684.14 1707.86 1684.14 1719.63 1684.14 1731.82 1686.1 1741.87 1690.02 1749.78 1693.93 1757.69 1699.92 1762.98 1707.96 1765.66L1706.71 1769.68C1696.5 1767 1688.68 1761.23 1683.25 1752.36 1677.82 1743.5 1675.1 1732.76 1675.1 1720.16 1675.1 1707.58 1677.83 1696.84 1683.28 1687.95 1688.73 1679.05 1696.54 1673.26 1706.71 1670.57Z" fill-rule="evenodd"/><text fill="#000000" fill-opacity="0" font-family="Arial,Arial_MSFontService,sans-serif" font-size="99.1108" x="1675.1" y="1757.3">(</text><path d="M1741.47 1678.41C1744.26 1678.41 1746.86 1678.71 1749.28 1679.3 1751.7 1679.89 1753.8 1680.79 1755.58 1681.99 1757.35 1683.19 1758.74 1684.69 1759.73 1686.48 1760.72 1688.28 1761.22 1690.36 1761.22 1692.73 1761.22 1694.95 1760.91 1696.92 1760.28 1698.63 1759.65 1700.34 1758.68 1701.89 1757.38 1703.28 1756.07 1704.67 1754.47 1705.94 1752.57 1707.07 1750.67 1708.2 1748.49 1709.29 1746.02 1710.33L1746.02 1710.96C1748.35 1711.38 1750.53 1712.05 1752.55 1712.97 1754.57 1713.89 1756.33 1715.06 1757.85 1716.47 1759.36 1717.88 1760.56 1719.51 1761.43 1721.36 1762.3 1723.2 1762.73 1725.24 1762.73 1727.47 1762.73 1730.26 1762.21 1732.84 1761.17 1735.23 1760.12 1737.61 1758.55 1739.68 1756.46 1741.42 1754.37 1743.16 1751.8 1744.52 1748.73 1745.49 1745.67 1746.47 1742.08 1746.96 1737.97 1746.96 1734.73 1746.96 1731.44 1746.64 1728.09 1745.99 1724.75 1745.35 1721.58 1744.5 1718.59 1743.46L1718.59 1732.17 1725.33 1732.17C1725.88 1733.91 1726.54 1735.4 1727.31 1736.64 1728.08 1737.88 1728.97 1738.89 1730 1739.67 1731.03 1740.45 1732.21 1741.02 1733.55 1741.37 1734.9 1741.72 1736.42 1741.89 1738.13 1741.89 1742.62 1741.89 1746.02 1740.82 1748.34 1738.68 1750.66 1736.53 1751.81 1733.29 1751.81 1728.93 1751.81 1724.3 1750.29 1720.79 1747.24 1718.4 1744.2 1716.02 1739.68 1714.83 1733.69 1714.83L1729.09 1714.83 1729.09 1709.81C1732.74 1709.64 1735.91 1709.12 1738.57 1708.27 1741.23 1707.42 1743.46 1706.31 1745.23 1704.95 1747.01 1703.59 1748.33 1702.01 1749.2 1700.2 1750.07 1698.39 1750.51 1696.45 1750.51 1694.4 1750.51 1691.05 1749.52 1688.42 1747.53 1686.48 1745.54 1684.55 1742.67 1683.58 1738.91 1683.58 1735.74 1683.58 1733.08 1684.45 1730.94 1686.2 1728.8 1687.94 1727.15 1690.53 1726 1693.98L1719.37 1693.98 1719.37 1683.69C1723.48 1681.95 1727.35 1680.63 1730.99 1679.74 1734.63 1678.85 1738.13 1678.41 1741.47 1678.41Z" fill-rule="evenodd"/><text fill="#000000" fill-opacity="0" font-family="Arial,Arial_MSFontService,sans-serif" font-size="68.5469" x="1718.59" y="1738.39">3</text><path d="M1775.65 1670.57C1785.82 1673.26 1793.64 1679.05 1799.09 1687.95 1804.54 1696.84 1807.26 1707.58 1807.26 1720.16 1807.26 1732.76 1804.55 1743.5 1799.11 1752.36 1793.68 1761.23 1785.86 1767 1775.65 1769.68L1774.4 1765.66C1782.45 1762.98 1788.43 1757.69 1792.35 1749.78 1796.27 1741.87 1798.22 1731.82 1798.22 1719.63 1798.22 1707.86 1796.27 1698.08 1792.37 1690.3 1788.47 1682.51 1782.43 1677.28 1774.24 1674.6Z" fill-rule="evenodd"/><text fill="#000000" fill-opacity="0" font-family="Arial,Arial_MSFontService,sans-serif" font-size="99.1108" x="1774.24" y="1757.3">)</text><path d="M1180.5 794.5 1493.5 894.231 1493.5 1043.77 1180.5 1143.5Z" stroke="#2B4719" stroke-width="4.58333" stroke-miterlimit="8" fill="#70AD47" fill-rule="evenodd"/><path d="M1310.87 942.387C1313.2 942.387 1315.21 942.577 1316.9 942.957L1315.51 949.017 1312.37 949.017C1312.04 947.662 1311.6 946.688 1311.07 946.094 1310.53 945.5 1309.74 945.203 1308.7 945.203 1307.34 945.203 1306.2 945.577 1305.26 946.325 1304.32 947.074 1303.52 948.185 1302.85 949.658 1302.19 951.132 1301.57 953.116 1301 955.611L1300.11 959.496 1309.27 959.496 1308.48 963.096 1299.29 963.096 1292.66 994.178C1291.57 999.335 1289.89 1003.18 1287.63 1005.71 1285.38 1008.24 1282.54 1009.51 1279.11 1009.51 1278.12 1009.51 1277.33 1009.45 1276.76 1009.33L1277.37 1006.19C1277.6 1006.26 1278.16 1006.3 1279.04 1006.3 1280.11 1006.3 1281.03 1006.02 1281.79 1005.48 1282.55 1004.93 1283.25 1003.98 1283.91 1002.63 1284.56 1001.27 1285.16 999.394 1285.71 996.994L1293.37 963.096 1287.35 963.096 1287.88 960.637C1289.47 960.542 1290.62 960.411 1291.32 960.245 1292.02 960.078 1292.57 959.829 1292.96 959.496 1293.35 959.163 1293.69 958.73 1293.96 958.195 1294.23 957.66 1294.58 956.68 1295.01 955.254 1296.27 950.977 1298.21 947.763 1300.84 945.613 1303.47 943.462 1306.81 942.387 1310.87 942.387Z" fill-rule="evenodd"/><text fill="#000000" fill-opacity="0" font-family="Arial,Arial_MSFontService,sans-serif" font-size="67.1187" x="1276.76" y="1001.12">𝑓</text><path d="M2242.5 1143.5 1928.5 1053.44 1928.5 885.558 2242.5 795.5Z" stroke="#6C4F00" stroke-width="4.58333" stroke-miterlimit="8" fill="#FFC000" fill-rule="evenodd"/><path d="M2102.74 946.01 2104.55 946.01 2099.18 967.667 2099.55 967.792C2101.53 965.167 2103.4 963.266 2105.16 962.089 2106.92 960.911 2108.7 960.323 2110.49 960.323 2112.43 960.323 2113.91 960.88 2114.96 961.995 2116 963.109 2116.52 964.656 2116.52 966.635 2116.52 967.948 2116.22 969.812 2115.61 972.229L2113.58 980.417C2113.02 982.688 2112.74 984.292 2112.74 985.229 2112.74 986.062 2112.87 986.667 2113.14 987.042 2113.41 987.417 2113.84 987.604 2114.43 987.604 2115.05 987.604 2115.72 987.349 2116.43 986.839 2117.13 986.328 2118.13 985.354 2119.43 983.917L2121.21 985.667C2119.21 987.771 2117.57 989.219 2116.28 990.01 2115 990.802 2113.56 991.198 2111.96 991.198 2110.6 991.198 2109.52 990.719 2108.72 989.76 2107.92 988.802 2107.52 987.562 2107.52 986.042 2107.52 984.688 2107.86 982.698 2108.55 980.073L2109.89 974.667C2110.37 972.729 2110.7 971.276 2110.86 970.307 2111.03 969.339 2111.11 968.583 2111.11 968.042 2111.11 966.562 2110.87 965.516 2110.39 964.901 2109.91 964.286 2109.13 963.979 2108.05 963.979 2107.2 963.979 2106.25 964.333 2105.21 965.042 2104.16 965.75 2103.07 966.828 2101.93 968.276 2100.78 969.724 2099.87 971.109 2099.19 972.432 2098.51 973.755 2097.98 975.333 2097.58 977.167L2094.74 990.698 2089.33 990.698 2097.36 954.979C2097.86 952.75 2098.11 951.208 2098.11 950.354 2098.11 949.479 2097.85 948.865 2097.32 948.51 2096.78 948.156 2095.83 947.958 2094.46 947.917L2094.83 946.292Z" fill-rule="evenodd"/><text fill="#000000" fill-opacity="0" font-family="Arial,Arial_MSFontService,sans-serif" font-size="45.1875" x="2089.33" y="985.549">ℎ</text><text font-family="Calibri,Calibri_MSFontService,sans-serif" font-weight="400" font-size="64" transform="matrix(1 0 0 1 1514.14 746)">Representation</text><text font-family="Calibri,Calibri_MSFontService,sans-serif" font-weight="400" font-size="64" transform="matrix(1 0 0 1 2318.52 746)">Embedding</text><path d="M1182.5 1182.5 1496.5 1282.55 1496.5 1431.45 1182.5 1531.5Z" stroke="#2B4719" stroke-width="4.58333" stroke-miterlimit="8" fill="#70AD47" fill-rule="evenodd"/><path d="M1312.54 1333.04C1314.58 1333.04 1316.34 1333.2 1317.82 1333.54L1316.6 1338.85 1313.85 1338.85C1313.56 1337.66 1313.18 1336.81 1312.71 1336.29 1312.24 1335.77 1311.55 1335.5 1310.63 1335.5 1309.45 1335.5 1308.44 1335.83 1307.62 1336.49 1306.79 1337.15 1306.09 1338.12 1305.51 1339.41 1304.92 1340.7 1304.38 1342.44 1303.88 1344.63L1303.1 1348.04 1311.13 1348.04 1310.45 1351.19 1302.38 1351.19 1296.57 1378.44C1295.61 1382.96 1294.14 1386.33 1292.16 1388.55 1290.18 1390.77 1287.7 1391.88 1284.7 1391.88 1283.82 1391.88 1283.13 1391.83 1282.63 1391.72L1283.16 1388.97C1283.37 1389.04 1283.86 1389.07 1284.63 1389.07 1285.57 1389.07 1286.37 1388.83 1287.04 1388.35 1287.71 1387.87 1288.33 1387.04 1288.9 1385.85 1289.47 1384.66 1290 1383.02 1290.48 1380.91L1297.2 1351.19 1291.91 1351.19 1292.38 1349.04C1293.78 1348.95 1294.78 1348.84 1295.4 1348.69 1296.01 1348.55 1296.49 1348.33 1296.84 1348.04 1297.18 1347.74 1297.47 1347.36 1297.71 1346.9 1297.95 1346.43 1298.26 1345.57 1298.63 1344.32 1299.74 1340.57 1301.44 1337.75 1303.74 1335.86 1306.04 1333.98 1308.98 1333.04 1312.54 1333.04Z" fill-rule="evenodd"/><text fill="#000000" fill-opacity="0" font-family="Arial,Arial_MSFontService,sans-serif" font-size="58.8438" x="1282.63" y="1384.52">𝑓</text><path d="M1182.5 1574.5 1495.5 1674.23 1495.5 1823.77 1182.5 1923.5Z" stroke="#2B4719" stroke-width="4.58333" stroke-miterlimit="8" fill="#70AD47" fill-rule="evenodd"/><path d="M1311.97 1724.8C1314.01 1724.8 1315.77 1724.97 1317.25 1725.3L1316.03 1730.61 1313.28 1730.61C1312.99 1729.42 1312.61 1728.57 1312.14 1728.05 1311.67 1727.53 1310.98 1727.27 1310.06 1727.27 1308.87 1727.27 1307.87 1727.6 1307.04 1728.25 1306.22 1728.91 1305.52 1729.88 1304.93 1731.17 1304.35 1732.47 1303.81 1734.21 1303.31 1736.39L1302.53 1739.8 1310.56 1739.8 1309.87 1742.96 1301.81 1742.96 1296 1770.21C1295.04 1774.73 1293.57 1778.1 1291.59 1780.31 1289.61 1782.53 1287.12 1783.64 1284.12 1783.64 1283.25 1783.64 1282.56 1783.59 1282.06 1783.49L1282.59 1780.74C1282.8 1780.8 1283.29 1780.83 1284.06 1780.83 1285 1780.83 1285.8 1780.59 1286.47 1780.11 1287.13 1779.63 1287.75 1778.8 1288.32 1777.61 1288.9 1776.42 1289.42 1774.78 1289.9 1772.67L1296.62 1742.96 1291.34 1742.96 1291.81 1740.8C1293.2 1740.72 1294.21 1740.6 1294.82 1740.46 1295.44 1740.31 1295.92 1740.09 1296.26 1739.8 1296.61 1739.51 1296.9 1739.13 1297.14 1738.66 1297.38 1738.19 1297.68 1737.33 1298.06 1736.08 1299.16 1732.33 1300.87 1729.51 1303.17 1727.63 1305.47 1725.74 1308.4 1724.8 1311.97 1724.8Z" fill-rule="evenodd"/><text fill="#000000" fill-opacity="0" font-family="Arial,Arial_MSFontService,sans-serif" font-size="58.8438" x="1282.06" y="1776.29">𝑓</text><path d="M2241.5 1531.5 1927.5 1441.44 1927.5 1273.56 2241.5 1183.5Z" stroke="#6C4F00" stroke-width="4.58333" stroke-miterlimit="8" fill="#FFC000" fill-rule="evenodd"/><path d="M2101.7 1333.86 2103.51 1333.86 2098.14 1355.51 2098.51 1355.64C2100.49 1353.01 2102.36 1351.11 2104.12 1349.93 2105.88 1348.76 2107.66 1348.17 2109.45 1348.17 2111.39 1348.17 2112.88 1348.73 2113.92 1349.84 2114.96 1350.95 2115.48 1352.5 2115.48 1354.48 2115.48 1355.79 2115.18 1357.66 2114.58 1360.07L2112.54 1368.26C2111.98 1370.53 2111.7 1372.14 2111.7 1373.07 2111.7 1373.91 2111.84 1374.51 2112.11 1374.89 2112.38 1375.26 2112.8 1375.45 2113.39 1375.45 2114.01 1375.45 2114.68 1375.19 2115.39 1374.68 2116.1 1374.17 2117.1 1373.2 2118.39 1371.76L2120.17 1373.51C2118.17 1375.62 2116.53 1377.06 2115.25 1377.86 2113.97 1378.65 2112.52 1379.04 2110.92 1379.04 2109.56 1379.04 2108.49 1378.56 2107.68 1377.61 2106.88 1376.65 2106.48 1375.41 2106.48 1373.89 2106.48 1372.53 2106.83 1370.54 2107.51 1367.92L2108.86 1362.51C2109.34 1360.57 2109.66 1359.12 2109.83 1358.15 2109.99 1357.18 2110.08 1356.43 2110.08 1355.89 2110.08 1354.41 2109.84 1353.36 2109.36 1352.75 2108.88 1352.13 2108.1 1351.82 2107.01 1351.82 2106.16 1351.82 2105.21 1352.18 2104.17 1352.89 2103.13 1353.6 2102.03 1354.67 2100.89 1356.12 2099.74 1357.57 2098.83 1358.95 2098.15 1360.28 2097.48 1361.6 2096.94 1363.18 2096.54 1365.01L2093.7 1378.54 2088.29 1378.54 2096.33 1342.82C2096.83 1340.6 2097.08 1339.05 2097.08 1338.2 2097.08 1337.32 2096.81 1336.71 2096.28 1336.36 2095.75 1336 2094.79 1335.8 2093.42 1335.76L2093.79 1334.14Z" fill-rule="evenodd"/><text fill="#000000" fill-opacity="0" font-family="Arial,Arial_MSFontService,sans-serif" font-size="45.1875" x="2088.29" y="1373.39">ℎ</text><path d="M2243.5 1920.5 1929.5 1830.44 1929.5 1662.56 2243.5 1572.5Z" stroke="#6C4F00" stroke-width="4.58333" stroke-miterlimit="8" fill="#FFC000" fill-rule="evenodd"/><path d="M2103.63 1722.89 2105.44 1722.89 2100.07 1744.55 2100.44 1744.67C2102.42 1742.05 2104.29 1740.15 2106.05 1738.97 2107.81 1737.79 2109.59 1737.2 2111.38 1737.2 2113.32 1737.2 2114.81 1737.76 2115.85 1738.88 2116.89 1739.99 2117.41 1741.54 2117.41 1743.52 2117.41 1744.83 2117.11 1746.69 2116.51 1749.11L2114.47 1757.3C2113.91 1759.57 2113.63 1761.17 2113.63 1762.11 2113.63 1762.94 2113.77 1763.55 2114.04 1763.92 2114.31 1764.3 2114.73 1764.48 2115.32 1764.48 2115.94 1764.48 2116.61 1764.23 2117.32 1763.72 2118.03 1763.21 2119.03 1762.23 2120.32 1760.8L2122.1 1762.55C2120.1 1764.65 2118.46 1766.1 2117.18 1766.89 2115.9 1767.68 2114.45 1768.08 2112.85 1768.08 2111.49 1768.08 2110.42 1767.6 2109.61 1766.64 2108.81 1765.68 2108.41 1764.44 2108.41 1762.92 2108.41 1761.57 2108.76 1759.58 2109.44 1756.95L2110.79 1751.55C2111.27 1749.61 2111.59 1748.16 2111.76 1747.19 2111.92 1746.22 2112.01 1745.46 2112.01 1744.92 2112.01 1743.44 2111.77 1742.4 2111.29 1741.78 2110.81 1741.17 2110.03 1740.86 2108.94 1740.86 2108.09 1740.86 2107.14 1741.21 2106.1 1741.92 2105.06 1742.63 2103.96 1743.71 2102.82 1745.16 2101.67 1746.6 2100.76 1747.99 2100.08 1749.31 2099.41 1750.64 2098.87 1752.21 2098.47 1754.05L2095.63 1767.58 2090.22 1767.58 2098.26 1731.86C2098.76 1729.63 2099.01 1728.09 2099.01 1727.23 2099.01 1726.36 2098.74 1725.75 2098.21 1725.39 2097.68 1725.04 2096.72 1724.84 2095.35 1724.8L2095.72 1723.17Z" fill-rule="evenodd"/><text fill="#000000" fill-opacity="0" font-family="Arial,Arial_MSFontService,sans-serif" font-size="45.1875" x="2090.22" y="1762.43">ℎ</text><text font-family="Calibri,Calibri_MSFontService,sans-serif" font-weight="400" font-size="64" transform="matrix(1 0 0 1 1229.74 2009)">Encoder</text><text font-family="Calibri,Calibri_MSFontService,sans-serif" font-weight="400" font-size="64" transform="matrix(1 0 0 1 1963.84 2009)">Projector</text></g></svg>